if (_typeface_js && _typeface_js.loadFace) _typeface_js.loadFace({"glyphs":{"0":{"ha":833,"x_min":0,"x_max":0,"o":"m 417 903 b 660 639 625 903 660 868 l 660 333 b 417 69 660 104 625 69 b 174 333 208 69 174 104 l 174 639 b 417 903 174 868 208 903 z m 375 0 l 458 0 b 729 306 653 0 729 76 l 729 667 b 458 972 729 896 653 972 l 375 972 b 104 667 181 972 104 896 l 104 306 b 375 0 104 76 181 0 z "},"1":{"ha":278,"x_min":0,"x_max":0,"o":"m 104 0 l 174 0 l 174 972 l 56 972 l 42 903 l 104 903 z "},"2":{"ha":833,"x_min":0,"x_max":0,"o":"m 174 69 l 174 181 b 729 715 174 472 729 368 b 417 972 729 896 660 972 l 375 972 b 104 667 201 972 104 875 l 104 590 l 174 590 l 174 639 b 417 903 174 868 239 903 b 660 722 628 903 660 833 b 104 181 660 426 104 547 l 104 0 l 729 0 l 729 313 l 660 313 l 660 69 z "},"3":{"ha":833,"x_min":0,"x_max":0,"o":"m 375 0 l 458 0 b 729 306 653 0 729 90 l 729 486 b 642 625 729 551 701 597 b 729 764 701 653 729 699 l 729 778 b 417 986 729 924 667 986 b 104 757 181 986 104 903 l 104 694 l 174 694 l 174 757 b 417 917 174 854 208 917 b 660 778 625 917 660 889 l 660 764 b 417 660 660 681 618 660 l 347 660 l 347 590 l 417 590 b 660 500 618 590 660 569 l 660 333 b 417 69 660 104 625 69 b 174 333 222 69 174 104 l 174 347 l 104 347 l 104 306 b 375 0 104 90 194 0 z "},"4":{"ha":833,"x_min":0,"x_max":0,"o":"m 69 313 l 660 313 l 660 0 l 729 0 l 729 729 l 694 729 l 660 660 l 660 382 l 175 382 b 451 903 336 519 451 681 l 451 972 l 382 972 l 382 903 b 69 368 382 660 222 507 z "},"5":{"ha":833,"x_min":0,"x_max":0,"o":"m 375 0 l 458 0 b 729 306 639 0 729 83 l 729 431 b 417 674 729 611 660 674 b 174 618 306 674 222 667 l 174 903 l 715 903 l 715 972 l 104 972 l 104 486 l 160 486 b 417 604 179 585 208 604 b 660 431 625 604 660 569 l 660 333 b 417 69 660 104 611 69 b 174 333 222 69 174 104 l 174 347 l 104 347 l 104 306 b 375 0 104 83 194 0 z "},"6":{"ha":833,"x_min":0,"x_max":0,"o":"m 347 382 l 500 382 b 674 243 639 382 674 326 b 417 69 674 104 625 69 b 174 243 222 69 174 118 b 347 382 174 326 208 382 z m 375 0 l 458 0 b 743 243 667 0 743 83 b 500 451 743 361 667 451 l 361 451 b 174 361 250 451 201 424 l 174 639 b 417 903 174 865 208 903 b 660 639 611 903 660 865 l 660 625 l 729 625 l 729 667 b 458 972 729 889 639 972 l 375 972 b 104 667 194 972 104 889 l 104 236 b 375 0 104 90 181 0 z "},"7":{"ha":833,"x_min":0,"x_max":0,"o":"m 139 313 l 382 313 l 382 0 l 451 0 l 451 313 l 694 313 l 694 382 l 451 382 b 771 931 451 599 514 715 l 771 972 l 69 972 l 69 903 l 647 903 b 382 382 453 740 389 603 l 139 382 z "},"8":{"ha":833,"x_min":0,"x_max":0,"o":"m 417 590 b 660 361 628 590 660 556 l 660 333 b 417 69 660 104 628 69 b 174 333 206 69 174 104 l 174 361 b 417 590 174 556 206 590 z m 521 903 b 660 778 632 903 660 853 b 556 660 660 707 639 660 l 278 660 b 174 778 194 660 174 707 b 313 903 174 853 201 903 z m 375 0 l 458 0 b 729 306 646 0 729 83 l 729 389 b 625 611 729 489 708 576 b 729 778 701 639 729 708 b 521 972 729 889 653 972 l 313 972 b 104 778 181 972 104 889 b 208 611 104 708 132 639 b 104 389 125 576 104 489 l 104 306 b 375 0 104 83 188 0 z "},"9":{"ha":833,"x_min":0,"x_max":0,"o":"m 375 0 l 458 0 b 729 306 639 0 729 83 l 729 736 b 458 972 729 882 653 972 l 375 972 b 97 729 172 972 97 889 b 333 521 97 611 171 521 l 472 521 b 660 611 583 521 632 549 l 660 333 b 417 69 660 104 625 69 b 174 333 222 69 174 104 l 174 347 l 104 347 l 104 306 b 375 0 104 83 194 0 z m 486 590 l 333 590 b 167 729 200 590 167 646 b 417 903 167 868 214 903 b 660 729 611 903 660 854 b 486 590 660 646 625 590 z "}," ":{"ha":278,"x_min":0,"x_max":0,"o":""},"A":{"ha":833,"x_min":0,"x_max":0,"o":"m 403 972 b 104 278 153 813 104 535 l 104 0 l 174 0 l 174 278 l 660 278 l 660 0 l 729 0 l 729 278 b 431 972 729 535 681 813 z m 175 347 b 417 901 182 567 226 758 b 658 347 607 758 651 567 z "},"B":{"ha":833,"x_min":0,"x_max":0,"o":"m 458 972 l 104 972 l 104 0 l 563 0 b 736 188 653 0 736 35 b 635 363 736 283 693 339 b 729 583 696 403 729 474 l 729 667 b 458 972 729 889 632 972 z m 667 188 b 563 63 667 90 625 63 l 174 63 l 174 313 l 181 314 l 181 313 l 563 313 b 667 188 625 313 667 292 z m 417 382 l 174 382 l 174 903 l 417 903 b 660 639 597 903 660 868 l 660 611 b 417 382 660 410 597 382 z "},"C":{"ha":833,"x_min":0,"x_max":0,"o":"m 375 0 l 458 0 b 729 306 639 0 729 76 l 729 347 l 660 347 l 660 333 b 417 69 660 107 611 69 b 174 333 208 69 174 104 l 174 639 b 417 903 174 868 208 903 b 660 639 611 903 660 865 l 660 625 l 729 625 l 729 667 b 458 972 729 896 639 972 l 375 972 b 104 667 181 972 104 896 l 104 306 b 375 0 104 76 181 0 z "},"D":{"ha":833,"x_min":0,"x_max":0,"o":"m 458 0 b 729 306 653 0 729 76 l 729 667 b 458 972 729 896 653 972 l 104 972 l 104 0 z m 417 69 l 174 69 l 174 903 l 417 903 b 660 639 625 903 660 868 l 660 333 b 417 69 660 104 625 69 z "},"E":{"ha":833,"x_min":0,"x_max":0,"o":"m 104 0 l 729 0 l 729 69 l 174 69 l 174 347 l 660 347 l 660 417 l 174 417 l 174 903 l 729 903 l 729 972 l 104 972 z "},"F":{"ha":833,"x_min":0,"x_max":0,"o":"m 104 0 l 174 0 l 174 347 l 694 347 l 694 417 l 174 417 l 174 903 l 764 903 l 764 972 l 104 972 z "},"G":{"ha":833,"x_min":0,"x_max":0,"o":"m 417 -14 b 667 111 569 -14 625 28 l 681 0 l 729 0 l 729 347 l 799 347 l 799 417 l 417 417 l 417 347 l 660 347 l 660 333 b 417 56 660 146 625 56 b 174 333 215 56 174 86 l 174 639 b 417 903 174 868 208 903 b 660 639 611 903 660 868 l 660 625 l 729 625 l 729 667 b 458 972 729 896 639 972 l 375 972 b 104 667 181 972 104 896 l 104 306 b 417 -14 104 67 181 -14 z "},"H":{"ha":833,"x_min":0,"x_max":0,"o":"m 104 0 l 174 0 l 174 556 l 660 556 l 660 0 l 729 0 l 729 972 l 660 972 l 660 625 l 174 625 l 174 972 l 104 972 z "},"I":{"ha":278,"x_min":0,"x_max":0,"o":"m 104 0 l 174 0 l 174 972 l 104 972 z "},"J":{"ha":556,"x_min":0,"x_max":0,"o":"m 104 181 b 278 -14 104 42 167 -14 b 451 194 382 -14 451 49 l 451 972 l 382 972 l 382 194 b 278 56 382 83 340 56 b 174 181 201 56 174 83 l 174 347 l 104 347 z "},"K":{"ha":833,"x_min":0,"x_max":0,"o":"m 104 0 l 174 0 l 174 313 l 438 313 b 646 139 549 313 632 292 l 660 0 l 729 0 l 715 139 b 575 349 706 250 663 318 b 701 556 654 381 694 447 l 729 972 l 660 972 l 632 556 b 438 382 622 403 542 382 l 174 382 l 174 972 l 104 972 z "},"L":{"ha":556,"x_min":0,"x_max":0,"o":"m 139 69 l 139 972 l 69 972 l 69 0 l 521 0 l 521 69 z "},"M":{"ha":833,"x_min":0,"x_max":0,"o":"m 104 0 l 174 0 l 174 779 l 306 444 b 382 69 375 278 382 243 l 382 0 l 451 0 l 451 69 b 528 444 451 243 458 278 l 660 779 l 660 0 l 729 0 l 729 972 l 660 972 l 472 493 b 417 321 449 431 431 374 b 361 493 403 374 385 431 l 174 972 l 104 972 z "},"N":{"ha":833,"x_min":0,"x_max":0,"o":"m 104 0 l 174 0 l 174 835 l 660 0 l 729 0 l 729 972 l 660 972 l 660 138 l 174 972 l 104 972 z "},"O":{"ha":833,"x_min":0,"x_max":0,"o":"m 417 903 b 660 639 625 903 660 868 l 660 333 b 417 69 660 104 625 69 b 174 333 208 69 174 104 l 174 639 b 417 903 174 868 208 903 z m 375 0 l 458 0 b 729 306 653 0 729 76 l 729 667 b 458 972 729 896 653 972 l 375 972 b 104 667 181 972 104 896 l 104 306 b 375 0 104 76 181 0 z "},"P":{"ha":833,"x_min":0,"x_max":0,"o":"m 458 278 b 729 583 631 278 729 361 l 729 667 b 458 972 729 889 631 972 l 104 972 l 104 0 l 174 0 l 174 278 z m 417 347 l 174 347 l 174 903 l 417 903 b 660 639 597 903 660 865 l 660 611 b 417 347 660 385 597 347 z "},"Q":{"ha":833,"x_min":0,"x_max":0,"o":"m 375 0 l 382 0 l 382 -69 l 451 -69 l 451 0 l 458 0 b 729 306 653 0 729 76 l 729 667 b 458 972 729 896 653 972 l 375 972 b 104 667 181 972 104 896 l 104 306 b 375 0 104 76 181 0 z m 417 903 b 660 639 625 903 660 868 l 660 333 b 451 69 660 118 629 74 l 451 278 l 382 278 l 382 69 b 174 333 204 74 174 118 l 174 639 b 417 903 174 868 208 903 z "},"R":{"ha":833,"x_min":0,"x_max":0,"o":"m 458 972 l 104 972 l 104 0 l 174 0 l 174 278 l 472 278 b 653 139 610 278 635 264 l 674 0 l 743 0 l 722 139 b 615 313 710 235 676 288 b 729 583 689 356 729 440 l 729 667 b 458 972 729 889 632 972 z m 417 347 l 174 347 l 174 903 l 417 903 b 660 639 597 903 660 868 l 660 611 b 417 347 660 382 597 347 z "},"S":{"ha":833,"x_min":0,"x_max":0,"o":"m 417 69 b 167 333 233 69 167 104 l 167 347 l 104 347 l 104 306 b 375 0 104 83 203 0 l 417 0 b 722 264 646 0 722 97 b 167 708 722 604 167 438 b 417 903 167 833 217 903 b 660 639 594 903 660 868 l 660 625 l 722 625 l 722 667 b 458 972 722 889 625 972 l 417 972 b 104 708 188 972 104 875 b 660 264 104 368 660 535 b 417 69 660 139 611 69 z "},"T":{"ha":833,"x_min":0,"x_max":0,"o":"m 382 0 l 451 0 l 451 903 l 799 903 l 799 972 l 35 972 l 35 903 l 382 903 z "},"U":{"ha":833,"x_min":0,"x_max":0,"o":"m 375 0 l 458 0 b 729 306 632 0 729 97 l 729 972 l 660 972 l 660 333 b 417 69 660 132 590 69 b 174 333 243 69 174 132 l 174 972 l 104 972 l 104 306 b 375 0 104 97 201 0 z "},"V":{"ha":833,"x_min":0,"x_max":0,"o":"m 403 0 l 431 0 b 729 694 681 157 729 435 l 729 972 l 660 972 l 660 694 b 417 71 660 446 625 228 b 174 694 208 228 174 446 l 174 972 l 104 972 l 104 694 b 403 0 104 435 153 158 z "},"W":{"ha":833,"x_min":0,"x_max":0,"o":"m 264 0 l 292 0 b 417 271 350 94 394 176 b 542 0 439 176 483 94 l 569 0 b 729 556 672 157 729 357 l 729 972 l 660 972 l 660 556 b 556 96 660 382 633 250 b 451 486 471 249 451 339 l 451 972 l 382 972 l 382 486 b 278 96 382 339 363 249 b 174 556 200 250 174 382 l 174 972 l 104 972 l 104 556 b 264 0 104 357 161 157 z "},"X":{"ha":833,"x_min":0,"x_max":0,"o":"m 174 139 b 417 453 174 256 240 353 b 660 139 592 354 660 258 l 660 0 l 729 0 l 729 139 b 483 493 729 256 664 394 b 729 833 663 588 729 714 l 729 972 l 660 972 l 660 833 b 417 533 660 715 593 631 b 174 833 240 631 174 715 l 174 972 l 104 972 l 104 833 b 350 493 104 714 171 588 b 104 139 171 396 104 258 l 104 0 l 174 0 z "},"Y":{"ha":833,"x_min":0,"x_max":0,"o":"m 382 0 l 451 0 l 451 361 b 729 903 671 506 729 701 l 729 972 l 660 972 l 660 903 b 417 418 660 708 608 560 b 174 903 225 560 174 708 l 174 972 l 104 972 l 104 903 b 382 361 104 701 163 506 z "},"Z":{"ha":833,"x_min":0,"x_max":0,"o":"m 69 0 l 764 0 l 764 69 l 167 69 l 764 924 l 764 972 l 69 972 l 69 903 l 665 903 l 69 49 z "},"À":{"ha":833,"x_min":0,"x_max":0,"o":"m 174 278 l 660 278 l 660 0 l 729 0 l 729 278 b 457 954 729 525 683 793 l 410 1111 l 340 1111 l 340 1063 l 394 967 b 104 278 151 806 104 532 l 104 0 l 174 0 z m 175 347 b 417 901 182 567 226 758 b 658 347 607 758 651 567 z "},"Á":{"ha":833,"x_min":0,"x_max":0,"o":"m 174 278 l 660 278 l 660 0 l 729 0 l 729 278 b 439 967 729 532 682 806 l 493 1063 l 493 1111 l 424 1111 l 376 954 b 104 278 150 793 104 525 l 104 0 l 174 0 z m 175 347 b 417 901 182 567 226 758 b 658 347 607 758 651 567 z "},"Â":{"ha":833,"x_min":0,"x_max":0,"o":"m 174 278 l 660 278 l 660 0 l 729 0 l 729 278 b 519 903 729 500 693 739 l 556 903 l 556 951 l 438 1111 l 396 1111 l 278 951 l 278 903 l 314 903 b 104 278 140 739 104 500 l 104 0 l 174 0 z m 403 972 b 351 935 385 961 367 949 l 417 1056 l 482 935 b 431 972 467 949 449 961 z m 175 347 b 417 901 182 567 226 758 b 658 347 607 758 651 567 z "},"Ã":{"ha":833,"x_min":0,"x_max":0,"o":"m 528 1007 b 625 1118 590 1007 625 1049 l 625 1181 l 563 1181 l 563 1125 b 528 1069 563 1090 556 1069 b 306 1188 479 1069 382 1188 b 208 1076 240 1188 208 1146 l 208 1014 l 271 1014 l 271 1069 b 306 1125 271 1104 276 1125 b 528 1007 356 1125 444 1007 z m 403 972 b 104 278 153 813 104 535 l 104 0 l 174 0 l 174 278 l 660 278 l 660 0 l 729 0 l 729 278 b 431 972 729 535 681 813 z m 175 347 b 417 901 182 567 226 758 b 658 347 607 758 651 567 z "},"Ä":{"ha":833,"x_min":0,"x_max":0,"o":"m 299 972 l 354 972 l 354 1111 l 285 1111 z m 479 972 l 535 972 l 549 1111 l 479 1111 z m 403 972 b 104 278 153 813 104 535 l 104 0 l 174 0 l 174 278 l 660 278 l 660 0 l 729 0 l 729 278 b 431 972 729 535 681 813 z m 175 347 b 417 901 182 567 226 758 b 658 347 607 758 651 567 z "},"Å":{"ha":833,"x_min":0,"x_max":0,"o":"m 611 1104 b 424 1236 611 1188 556 1236 b 236 1104 292 1236 236 1188 b 424 972 236 1021 292 972 b 611 1104 556 972 611 1021 z m 549 1104 b 424 1028 549 1061 521 1028 b 299 1104 326 1028 299 1061 b 424 1181 299 1147 326 1181 b 549 1104 521 1181 549 1147 z m 403 972 b 104 278 153 813 104 535 l 104 0 l 174 0 l 174 278 l 660 278 l 660 0 l 729 0 l 729 278 b 431 972 729 535 681 813 z m 175 347 b 417 901 182 567 226 758 b 658 347 607 758 651 567 z "},"Æ":{"ha":833,"x_min":0,"x_max":0,"o":"m 243 972 b 104 486 160 833 104 639 l 104 0 l 174 0 l 174 313 l 382 313 l 382 0 l 764 0 l 764 69 l 451 69 l 451 313 l 729 313 l 729 382 l 451 382 l 451 486 b 349 903 451 615 411 769 l 729 903 l 729 972 z m 174 486 b 278 893 174 639 208 763 b 382 486 347 767 382 638 l 382 382 l 174 382 z "},"Ç":{"ha":833,"x_min":0,"x_max":0,"o":"m 375 0 l 396 0 l 382 -118 b 472 -160 438 -118 472 -118 b 382 -215 472 -197 450 -215 l 326 -215 l 313 -278 l 382 -278 b 535 -160 479 -278 535 -244 b 444 -69 535 -97 507 -69 l 444 0 l 458 0 b 729 306 639 0 729 76 l 729 347 l 660 347 l 660 333 b 417 69 660 107 611 69 b 174 333 208 69 174 104 l 174 639 b 417 903 174 868 208 903 b 660 639 611 903 660 865 l 660 625 l 729 625 l 729 667 b 458 972 729 896 639 972 l 375 972 b 104 667 181 972 104 896 l 104 306 b 375 0 104 76 181 0 z "},"È":{"ha":833,"x_min":0,"x_max":0,"o":"m 104 0 l 729 0 l 729 69 l 174 69 l 174 347 l 660 347 l 660 417 l 174 417 l 174 903 l 729 903 l 729 972 l 465 972 l 424 1111 l 354 1111 l 354 1063 l 406 972 l 104 972 z "},"É":{"ha":833,"x_min":0,"x_max":0,"o":"m 104 0 l 729 0 l 729 69 l 174 69 l 174 347 l 660 347 l 660 417 l 174 417 l 174 903 l 729 903 l 729 972 l 442 972 l 493 1063 l 493 1111 l 424 1111 l 382 972 l 104 972 z "},"Ê":{"ha":833,"x_min":0,"x_max":0,"o":"m 417 1056 l 463 972 l 371 972 z m 104 0 l 729 0 l 729 69 l 174 69 l 174 347 l 660 347 l 660 417 l 174 417 l 174 903 l 729 903 l 729 972 l 540 972 l 438 1111 l 396 1111 l 293 972 l 104 972 z "},"Ë":{"ha":833,"x_min":0,"x_max":0,"o":"m 104 0 l 729 0 l 729 69 l 174 69 l 174 347 l 660 347 l 660 417 l 174 417 l 174 903 l 729 903 l 729 972 l 535 972 l 549 1111 l 479 1111 l 479 972 l 354 972 l 354 1111 l 285 1111 l 299 972 l 104 972 z "},"Ì":{"ha":278,"x_min":0,"x_max":0,"o":"m 104 0 l 174 0 l 174 972 l 164 972 l 101 1181 l 32 1181 l 32 1132 l 122 972 l 104 972 z "},"Í":{"ha":278,"x_min":0,"x_max":0,"o":"m 104 0 l 174 0 l 174 972 l 169 972 l 260 1132 l 260 1181 l 190 1181 l 128 972 l 104 972 z "},"Î":{"ha":278,"x_min":0,"x_max":0,"o":"m 222 972 l 278 972 l 278 1021 l 160 1181 l 118 1181 l 0 1021 l 0 972 l 56 972 l 139 1125 z m 104 0 l 174 0 l 174 972 l 104 972 z "},"Ï":{"ha":278,"x_min":0,"x_max":0,"o":"m 21 1042 l 76 1042 l 76 1181 l 7 1181 z m 201 1042 l 257 1042 l 271 1181 l 201 1181 z m 104 0 l 174 0 l 174 972 l 104 972 z "},"İ":{"ha":278,"x_min":0,"x_max":0,"o":"m 194 1132 b 139 1188 194 1174 181 1188 b 83 1132 97 1188 83 1174 b 139 1076 83 1090 97 1076 b 194 1132 181 1076 194 1090 z m 104 0 l 174 0 l 174 972 l 104 972 z "},"Ĩ":{"ha":278,"x_min":0,"x_max":0,"o":"m 250 1007 b 347 1118 313 1007 347 1049 l 347 1181 l 285 1181 l 285 1125 b 250 1069 285 1090 278 1069 b 28 1188 201 1069 104 1188 b -69 1076 -37 1188 -69 1146 l -69 1014 l -7 1014 l -7 1069 b 28 1125 -7 1104 -1 1125 b 250 1007 78 1125 167 1007 z m 104 0 l 174 0 l 174 972 l 104 972 z "},"Ĳ":{"ha":556,"x_min":0,"x_max":0,"o":"m 104 181 b 278 -14 104 49 167 -14 b 451 194 396 -14 451 63 l 451 972 l 382 972 l 382 194 b 278 56 382 90 347 56 b 174 181 201 56 174 83 l 174 278 l 104 278 z m 104 417 l 174 417 l 174 972 l 104 972 z "},"Ł":{"ha":556,"x_min":0,"x_max":0,"o":"m 139 69 l 139 457 l 424 549 l 424 618 l 139 526 l 139 972 l 69 972 l 69 504 l 14 486 l 14 417 l 69 435 l 69 0 l 521 0 l 521 69 z "},"Ñ":{"ha":833,"x_min":0,"x_max":0,"o":"m 528 1007 b 625 1118 590 1007 625 1049 l 625 1181 l 563 1181 l 563 1125 b 528 1069 563 1090 556 1069 b 306 1188 479 1069 382 1188 b 208 1076 240 1188 208 1146 l 208 1014 l 271 1014 l 271 1069 b 306 1125 271 1104 276 1125 b 528 1007 356 1125 444 1007 z m 104 0 l 174 0 l 174 835 l 660 0 l 729 0 l 729 972 l 660 972 l 660 138 l 174 972 l 104 972 z "},"Ò":{"ha":833,"x_min":0,"x_max":0,"o":"m 417 903 b 660 639 625 903 660 868 l 660 333 b 417 69 660 104 625 69 b 174 333 208 69 174 104 l 174 639 b 417 903 174 868 208 903 z m 375 0 l 458 0 b 729 306 653 0 729 76 l 729 667 b 458 972 729 896 653 972 l 451 972 l 410 1111 l 340 1111 l 340 1063 l 392 972 l 375 972 b 104 667 181 972 104 896 l 104 306 b 375 0 104 76 181 0 z "},"Ó":{"ha":833,"x_min":0,"x_max":0,"o":"m 417 903 b 660 639 625 903 660 868 l 660 333 b 417 69 660 104 625 69 b 174 333 208 69 174 104 l 174 639 b 417 903 174 868 208 903 z m 375 0 l 458 0 b 729 306 653 0 729 76 l 729 667 b 458 972 729 896 653 972 l 456 972 l 507 1063 l 507 1111 l 438 1111 l 396 972 l 375 972 b 104 667 181 972 104 896 l 104 306 b 375 0 104 76 181 0 z "},"Ô":{"ha":833,"x_min":0,"x_max":0,"o":"m 417 903 b 660 639 625 903 660 868 l 660 333 b 417 69 660 104 625 69 b 174 333 208 69 174 104 l 174 639 b 417 903 174 868 208 903 z m 375 972 l 371 972 l 417 1056 l 463 972 l 458 972 z m 375 0 l 458 0 b 729 306 653 0 729 76 l 729 667 b 544 965 729 858 676 943 l 438 1111 l 396 1111 l 289 965 b 104 667 157 943 104 858 l 104 306 b 375 0 104 76 181 0 z "},"Õ":{"ha":833,"x_min":0,"x_max":0,"o":"m 528 1007 b 625 1118 590 1007 625 1049 l 625 1181 l 563 1181 l 563 1125 b 528 1069 563 1090 556 1069 b 306 1188 479 1069 382 1188 b 208 1076 240 1188 208 1146 l 208 1014 l 271 1014 l 271 1069 b 306 1125 271 1104 276 1125 b 528 1007 356 1125 444 1007 z m 417 903 b 660 639 625 903 660 868 l 660 333 b 417 69 660 104 625 69 b 174 333 208 69 174 104 l 174 639 b 417 903 174 868 208 903 z m 375 0 l 458 0 b 729 306 653 0 729 76 l 729 667 b 458 972 729 896 653 972 l 375 972 b 104 667 181 972 104 896 l 104 306 b 375 0 104 76 181 0 z "},"Ö":{"ha":833,"x_min":0,"x_max":0,"o":"m 299 972 l 354 972 l 354 1111 l 285 1111 z m 479 972 l 535 972 l 549 1111 l 479 1111 z m 417 903 b 660 639 625 903 660 868 l 660 333 b 417 69 660 104 625 69 b 174 333 208 69 174 104 l 174 639 b 417 903 174 868 208 903 z m 375 0 l 458 0 b 729 306 653 0 729 76 l 729 667 b 458 972 729 896 653 972 l 375 972 b 104 667 181 972 104 896 l 104 306 b 375 0 104 76 181 0 z "},"Ø":{"ha":833,"x_min":0,"x_max":0,"o":"m 417 903 b 614 858 519 903 579 894 l 185 182 b 174 333 176 219 174 268 l 174 639 b 417 903 174 868 208 903 z m 417 69 b 219 114 314 69 254 78 l 649 790 b 660 639 657 753 660 704 l 660 333 b 417 69 660 104 625 69 z m 69 0 l 125 -35 l 181 53 b 375 0 224 15 288 0 l 458 0 b 729 306 653 0 729 76 l 729 667 b 694 864 729 753 718 817 l 764 972 l 708 1007 l 653 919 b 458 972 610 957 546 972 l 375 972 b 104 667 181 972 104 896 l 104 306 b 139 108 104 219 115 156 z "},"Œ":{"ha":833,"x_min":0,"x_max":0,"o":"m 458 0 l 764 0 l 764 69 l 451 69 l 451 313 l 694 313 l 694 382 l 451 382 l 451 903 l 764 903 l 764 972 l 458 972 l 403 924 b 278 986 369 971 322 986 b 104 778 181 986 104 910 l 104 194 b 278 -14 104 63 181 -14 b 403 49 322 -14 369 -6 z m 382 778 l 382 194 b 278 56 382 83 340 56 b 174 194 215 56 174 83 l 174 778 b 278 917 174 889 215 917 b 382 778 340 917 382 889 z "},"Š":{"ha":833,"x_min":0,"x_max":0,"o":"m 417 69 b 167 333 233 69 167 104 l 167 347 l 104 347 l 104 306 b 375 0 104 83 203 0 l 417 0 b 722 264 646 0 722 97 b 167 708 722 604 167 438 b 417 903 167 833 217 903 b 660 639 594 903 660 868 l 660 625 l 722 625 l 722 667 b 488 971 722 875 636 961 l 549 1111 l 493 1111 l 417 976 l 340 1111 l 285 1111 l 346 968 b 104 708 171 950 104 857 b 660 264 104 368 660 535 b 417 69 660 139 611 69 z "},"Ù":{"ha":833,"x_min":0,"x_max":0,"o":"m 442 972 l 379 1181 l 310 1181 l 310 1132 l 400 972 z m 375 0 l 458 0 b 729 306 632 0 729 97 l 729 972 l 660 972 l 660 333 b 417 69 660 132 590 69 b 174 333 243 69 174 132 l 174 972 l 104 972 l 104 306 b 375 0 104 97 201 0 z "},"Ú":{"ha":833,"x_min":0,"x_max":0,"o":"m 406 972 l 447 972 l 538 1132 l 538 1181 l 468 1181 z m 375 0 l 458 0 b 729 306 632 0 729 97 l 729 972 l 660 972 l 660 333 b 417 69 660 132 590 69 b 174 333 243 69 174 132 l 174 972 l 104 972 l 104 306 b 375 0 104 97 201 0 z "},"Û":{"ha":833,"x_min":0,"x_max":0,"o":"m 500 972 l 556 972 l 556 1021 l 438 1181 l 396 1181 l 278 1021 l 278 972 l 333 972 l 417 1125 z m 375 0 l 458 0 b 729 306 632 0 729 97 l 729 972 l 660 972 l 660 333 b 417 69 660 132 590 69 b 174 333 243 69 174 132 l 174 972 l 104 972 l 104 306 b 375 0 104 97 201 0 z "},"Ü":{"ha":833,"x_min":0,"x_max":0,"o":"m 299 1042 l 354 1042 l 354 1181 l 285 1181 z m 479 1042 l 535 1042 l 549 1181 l 479 1181 z m 375 0 l 458 0 b 729 306 632 0 729 97 l 729 972 l 660 972 l 660 333 b 417 69 660 132 590 69 b 174 333 243 69 174 132 l 174 972 l 104 972 l 104 306 b 375 0 104 97 201 0 z "},"Ũ":{"ha":833,"x_min":0,"x_max":0,"o":"m 528 1007 b 625 1118 590 1007 625 1049 l 625 1181 l 563 1181 l 563 1125 b 528 1069 563 1090 556 1069 b 306 1188 479 1069 382 1188 b 208 1076 240 1188 208 1146 l 208 1014 l 271 1014 l 271 1069 b 306 1125 271 1104 276 1125 b 528 1007 356 1125 444 1007 z m 375 0 l 458 0 b 729 306 632 0 729 97 l 729 972 l 660 972 l 660 333 b 417 69 660 132 590 69 b 174 333 243 69 174 132 l 174 972 l 104 972 l 104 306 b 375 0 104 97 201 0 z "},"Ý":{"ha":833,"x_min":0,"x_max":0,"o":"m 406 972 l 447 972 l 538 1132 l 538 1181 l 468 1181 z m 382 0 l 451 0 l 451 361 b 729 903 671 506 729 701 l 729 972 l 660 972 l 660 903 b 417 418 660 708 608 560 b 174 903 225 560 174 708 l 174 972 l 104 972 l 104 903 b 382 361 104 701 163 506 z "},"Ŷ":{"ha":833,"x_min":0,"x_max":0,"o":"m 500 972 l 556 972 l 556 1021 l 438 1181 l 396 1181 l 278 1021 l 278 972 l 333 972 l 417 1125 z m 382 0 l 451 0 l 451 361 b 729 903 671 506 729 701 l 729 972 l 660 972 l 660 903 b 417 418 660 708 608 560 b 174 903 225 560 174 708 l 174 972 l 104 972 l 104 903 b 382 361 104 701 163 506 z "},"Ÿ":{"ha":833,"x_min":0,"x_max":0,"o":"m 299 1042 l 354 1042 l 354 1181 l 285 1181 z m 479 1042 l 535 1042 l 549 1181 l 479 1181 z m 382 0 l 451 0 l 451 361 b 729 903 671 506 729 701 l 729 972 l 660 972 l 660 903 b 417 418 660 708 608 560 b 174 903 225 560 174 708 l 174 972 l 104 972 l 104 903 b 382 361 104 701 163 506 z "},"Ỳ":{"ha":833,"x_min":0,"x_max":0,"o":"m 442 972 l 379 1181 l 310 1181 l 310 1132 l 400 972 z m 382 0 l 451 0 l 451 361 b 729 903 671 506 729 701 l 729 972 l 660 972 l 660 903 b 417 418 660 708 608 560 b 174 903 225 560 174 708 l 174 972 l 104 972 l 104 903 b 382 361 104 701 163 506 z "},"Ź":{"ha":833,"x_min":0,"x_max":0,"o":"m 69 0 l 764 0 l 764 69 l 167 69 l 764 924 l 764 972 l 417 972 l 507 1132 l 507 1181 l 438 1181 l 375 972 l 69 972 l 69 903 l 665 903 l 69 49 z "},"Ž":{"ha":833,"x_min":0,"x_max":0,"o":"m 69 0 l 764 0 l 764 69 l 167 69 l 764 924 l 764 972 l 458 972 l 549 1181 l 493 1181 l 417 1046 l 340 1181 l 285 1181 l 375 972 l 69 972 l 69 903 l 665 903 l 69 49 z "},"Ð":{"ha":833,"x_min":0,"x_max":0,"o":"m 458 0 b 729 306 653 0 729 76 l 729 667 b 458 972 729 896 653 972 l 104 972 l 104 382 l 0 382 l 0 313 l 104 313 l 104 0 z m 347 313 l 347 382 l 174 382 l 174 903 l 417 903 b 660 639 625 903 660 868 l 660 333 b 417 69 660 104 625 69 l 174 69 l 174 313 z "},"Þ":{"ha":833,"x_min":0,"x_max":0,"o":"m 174 0 l 174 278 l 521 278 b 729 486 653 278 729 347 b 521 694 729 625 653 694 l 174 694 l 174 972 l 111 972 l 111 0 z m 521 347 l 174 347 l 174 625 l 521 625 b 667 486 613 625 667 590 b 521 347 667 382 613 347 z "},"a":{"ha":833,"x_min":0,"x_max":0,"o":"m 90 188 b 375 -14 90 49 181 -14 b 667 83 542 -14 625 21 l 681 0 l 729 0 l 729 458 b 417 708 729 618 646 708 b 104 472 181 708 104 618 l 104 444 l 174 444 l 174 472 b 417 639 174 593 222 639 b 660 458 604 639 660 590 l 660 303 b 375 389 617 364 533 389 b 90 188 181 389 90 326 z m 375 56 b 160 188 201 56 160 90 b 375 319 160 285 201 319 b 660 188 597 319 660 278 b 375 56 660 97 597 56 z "},"b":{"ha":833,"x_min":0,"x_max":0,"o":"m 417 639 b 660 361 597 639 660 583 l 660 333 b 417 56 660 111 597 56 b 174 333 208 56 174 149 l 174 361 b 417 639 174 546 208 639 z m 104 0 l 153 0 l 167 111 l 174 174 l 174 171 l 167 111 b 417 -14 208 28 264 -14 b 729 333 653 -14 729 97 l 729 361 b 417 708 729 597 653 708 b 174 597 271 708 215 667 l 174 972 l 104 972 z "},"c":{"ha":833,"x_min":0,"x_max":0,"o":"m 417 56 b 167 292 201 56 167 132 l 167 403 b 417 639 167 563 201 639 b 660 486 625 639 660 601 l 660 438 l 729 438 l 729 500 b 417 708 729 633 653 708 b 97 403 167 708 97 604 l 97 292 b 417 -14 97 83 167 -14 b 729 194 653 -14 729 61 l 729 257 l 660 257 l 660 208 b 417 56 660 94 625 56 z "},"d":{"ha":833,"x_min":0,"x_max":0,"o":"m 417 56 b 174 333 236 56 174 111 l 174 361 b 417 639 174 583 236 639 b 660 361 625 639 660 549 l 660 333 b 417 56 660 146 625 56 z m 667 111 l 681 0 l 729 0 l 729 972 l 660 972 l 660 597 b 417 708 618 667 563 708 b 104 361 181 708 104 597 l 104 333 b 417 -14 104 97 181 -14 b 667 111 569 -14 625 28 z "},"e":{"ha":833,"x_min":0,"x_max":0,"o":"m 417 56 b 167 292 201 56 167 132 l 167 313 l 736 313 l 736 438 b 417 708 736 611 665 708 b 97 403 167 708 97 604 l 97 292 b 417 -14 97 83 167 -14 b 736 181 658 -14 736 56 l 736 243 l 667 243 l 667 194 b 417 56 667 90 631 56 z m 167 403 b 417 639 167 563 201 639 b 667 424 631 639 667 583 l 667 382 l 167 382 z "},"f":{"ha":556,"x_min":0,"x_max":0,"o":"m 35 313 l 114 313 l 104 243 l 104 0 l 174 0 l 174 313 l 521 313 l 521 382 l 174 382 l 174 729 b 347 903 174 868 243 903 l 556 903 l 556 972 l 340 972 b 104 729 188 972 104 882 l 104 451 l 114 382 l 35 382 z "},"g":{"ha":833,"x_min":0,"x_max":0,"o":"m 660 97 l 660 -42 b 417 -222 660 -174 618 -222 b 174 -104 215 -222 174 -194 b 417 0 174 -35 232 0 b 660 97 563 0 622 35 z m 417 69 b 174 333 236 69 174 122 l 174 361 b 417 639 174 583 236 639 b 660 361 625 639 660 549 l 660 333 b 417 69 660 156 625 69 z m 417 708 b 104 361 181 708 104 597 l 104 333 b 229 38 104 183 138 86 b 104 -104 149 22 104 -32 b 417 -292 104 -229 174 -292 b 729 -42 653 -292 729 -208 l 729 694 l 681 694 l 667 583 b 417 708 625 667 569 708 z "},"h":{"ha":833,"x_min":0,"x_max":0,"o":"m 104 0 l 174 0 l 174 361 b 417 639 174 546 208 639 b 660 361 597 639 660 583 l 660 0 l 729 0 l 729 403 b 438 708 729 611 646 708 b 167 583 271 708 181 653 l 174 529 l 174 528 l 167 583 l 174 681 l 174 972 l 104 972 z "},"i":{"ha":278,"x_min":0,"x_max":0,"o":"m 97 889 l 181 889 l 181 972 l 97 972 z m 104 0 l 174 0 l 174 694 l 104 694 z "},"j":{"ha":278,"x_min":0,"x_max":0,"o":"m 97 889 l 181 889 l 181 972 l 97 972 z m 0 -278 b 174 -69 118 -278 174 -222 l 174 694 l 104 694 l 104 -69 b 0 -208 104 -181 76 -208 z "},"k":{"ha":833,"x_min":0,"x_max":0,"o":"m 104 0 l 174 0 l 174 313 l 438 313 b 646 139 549 313 631 294 l 660 0 l 729 0 l 715 139 b 579 347 704 250 663 317 b 715 556 663 378 704 444 l 729 694 l 660 694 l 646 556 b 438 382 631 400 549 382 l 174 382 l 174 972 l 104 972 z "},"l":{"ha":278,"x_min":0,"x_max":0,"o":"m 104 0 l 174 0 l 174 972 l 104 972 z "},"m":{"ha":833,"x_min":0,"x_max":0,"o":"m 104 0 l 174 0 l 174 500 b 278 639 174 611 215 639 b 382 500 340 639 382 611 l 382 0 l 451 0 l 451 500 b 556 639 451 611 493 639 b 660 500 618 639 660 611 l 660 0 l 729 0 l 729 500 b 569 708 729 646 661 708 b 421 632 496 708 449 682 b 292 708 399 676 351 708 b 167 639 222 708 183 672 l 160 694 l 104 694 z "},"n":{"ha":833,"x_min":0,"x_max":0,"o":"m 104 0 l 174 0 l 174 361 b 417 639 174 546 208 639 b 660 361 597 639 660 583 l 660 0 l 729 0 l 729 403 b 438 708 729 611 646 708 b 167 583 271 708 181 653 l 153 694 l 104 694 z "},"o":{"ha":833,"x_min":0,"x_max":0,"o":"m 417 -14 b 736 292 667 -14 736 83 l 736 403 b 417 708 736 604 667 708 b 97 403 167 708 97 604 l 97 292 b 417 -14 97 83 167 -14 z m 417 56 b 167 292 199 56 167 132 l 167 403 b 417 639 167 563 199 639 b 667 403 635 639 667 563 l 667 292 b 417 56 667 132 635 56 z "},"p":{"ha":833,"x_min":0,"x_max":0,"o":"m 417 639 b 660 361 597 639 660 583 l 660 333 b 417 56 660 111 597 56 b 174 333 208 56 174 146 l 174 361 b 417 639 174 549 208 639 z m 174 97 b 417 -14 215 28 271 -14 b 729 333 653 -14 729 97 l 729 361 b 417 708 729 597 653 708 b 167 583 264 708 208 667 l 153 694 l 104 694 l 104 -278 l 174 -278 z "},"q":{"ha":833,"x_min":0,"x_max":0,"o":"m 417 56 b 174 333 236 56 174 111 l 174 361 b 417 639 174 583 236 639 b 660 361 625 639 660 549 l 660 333 b 417 56 660 146 625 56 z m 660 97 l 660 -278 l 729 -278 l 729 694 l 681 694 l 667 583 b 417 708 625 667 569 708 b 104 361 181 708 104 597 l 104 333 b 417 -14 104 97 181 -14 b 660 97 563 -14 618 28 z "},"r":{"ha":556,"x_min":0,"x_max":0,"o":"m 104 0 l 174 0 l 174 285 b 472 625 174 511 229 625 l 590 625 l 590 694 l 493 694 b 167 521 293 694 193 643 l 153 694 l 104 694 z "},"s":{"ha":833,"x_min":0,"x_max":0,"o":"m 743 174 b 417 382 743 306 674 354 b 174 521 253 401 174 431 b 417 639 174 604 226 639 b 660 486 618 639 660 601 l 660 458 l 729 458 l 729 500 b 417 708 729 633 653 708 b 104 521 190 708 104 639 b 417 313 104 389 171 339 b 674 174 590 292 674 264 b 417 56 674 90 618 56 b 174 208 215 56 174 94 l 174 236 l 104 236 l 104 194 b 417 -14 104 61 181 -14 b 743 174 653 -14 743 56 z "},"t":{"ha":556,"x_min":0,"x_max":0,"o":"m 521 69 l 382 69 b 174 278 243 69 174 97 l 174 625 l 521 625 l 521 694 l 174 694 l 174 833 l 125 833 l 104 681 l 104 278 b 382 0 104 76 181 0 l 521 0 z "},"u":{"ha":833,"x_min":0,"x_max":0,"o":"m 667 111 l 681 0 l 729 0 l 729 694 l 660 694 l 660 333 b 417 56 660 146 625 56 b 174 333 236 56 174 111 l 174 694 l 104 694 l 104 292 b 396 -14 104 83 188 -14 b 667 111 563 -14 653 42 z "},"v":{"ha":833,"x_min":0,"x_max":0,"o":"m 403 0 l 431 0 b 729 556 665 146 729 347 l 729 694 l 660 694 l 660 556 b 417 71 660 364 607 211 b 174 556 226 211 174 364 l 174 694 l 104 694 l 104 556 b 403 0 104 347 169 149 z "},"w":{"ha":833,"x_min":0,"x_max":0,"o":"m 264 0 l 292 0 b 417 257 346 88 397 164 b 542 0 436 164 488 88 l 569 0 b 729 486 660 139 729 313 l 729 694 l 660 694 l 660 486 b 554 96 660 338 621 222 b 451 417 483 207 451 296 l 451 694 l 382 694 l 382 417 b 279 96 382 296 350 207 b 174 486 213 222 174 338 l 174 694 l 104 694 l 104 486 b 264 0 104 313 174 139 z "},"x":{"ha":833,"x_min":0,"x_max":0,"o":"m 410 389 b 174 632 238 461 174 526 l 174 694 l 104 694 l 104 632 b 328 354 104 525 165 425 b 104 63 165 281 104 169 l 104 0 l 174 0 l 174 63 b 411 319 174 168 238 244 l 417 322 b 422 319 418 321 421 321 b 660 63 596 244 660 168 l 660 0 l 729 0 l 729 63 b 506 354 729 169 668 281 b 729 632 668 425 729 525 l 729 694 l 660 694 l 660 632 b 424 389 660 526 596 461 l 417 386 z "},"y":{"ha":833,"x_min":0,"x_max":0,"o":"m 729 556 l 729 694 l 660 694 l 660 556 b 417 71 660 361 608 213 b 174 556 225 213 174 361 l 174 694 l 104 694 l 104 556 b 382 14 104 354 163 158 l 382 -278 l 451 -278 l 451 14 b 729 556 671 158 729 354 z "},"z":{"ha":833,"x_min":0,"x_max":0,"o":"m 56 0 l 764 0 l 764 69 l 368 69 l 182 60 l 764 667 l 764 694 l 69 694 l 69 625 l 451 625 l 638 635 l 56 28 z "},"à":{"ha":833,"x_min":0,"x_max":0,"o":"m 444 764 l 382 972 l 313 972 l 313 924 l 403 764 z m 90 188 b 375 -14 90 49 181 -14 b 667 83 542 -14 625 21 l 681 0 l 729 0 l 729 458 b 417 708 729 618 646 708 b 104 472 181 708 104 618 l 104 444 l 174 444 l 174 472 b 417 639 174 593 222 639 b 660 458 604 639 660 590 l 660 303 b 375 389 617 364 533 389 b 90 188 181 389 90 326 z m 375 56 b 160 188 201 56 160 90 b 375 319 160 285 201 319 b 660 188 597 319 660 278 b 375 56 660 97 597 56 z "},"á":{"ha":833,"x_min":0,"x_max":0,"o":"m 403 764 l 444 764 l 535 924 l 535 972 l 465 972 z m 90 188 b 375 -14 90 49 181 -14 b 667 83 542 -14 625 21 l 681 0 l 729 0 l 729 458 b 417 708 729 618 646 708 b 104 472 181 708 104 618 l 104 444 l 174 444 l 174 472 b 417 639 174 593 222 639 b 660 458 604 639 660 590 l 660 303 b 375 389 617 364 533 389 b 90 188 181 389 90 326 z m 375 56 b 160 188 201 56 160 90 b 375 319 160 285 201 319 b 660 188 597 319 660 278 b 375 56 660 97 597 56 z "},"â":{"ha":833,"x_min":0,"x_max":0,"o":"m 500 764 l 556 764 l 556 813 l 438 972 l 396 972 l 278 813 l 278 764 l 333 764 l 417 917 z m 90 188 b 375 -14 90 49 181 -14 b 667 83 542 -14 625 21 l 681 0 l 729 0 l 729 458 b 417 708 729 618 646 708 b 104 472 181 708 104 618 l 104 444 l 174 444 l 174 472 b 417 639 174 593 222 639 b 660 458 604 639 660 590 l 660 303 b 375 389 617 364 533 389 b 90 188 181 389 90 326 z m 375 56 b 160 188 201 56 160 90 b 375 319 160 285 201 319 b 660 188 597 319 660 278 b 375 56 660 97 597 56 z "},"ã":{"ha":833,"x_min":0,"x_max":0,"o":"m 528 799 b 625 910 590 799 625 840 l 625 972 l 563 972 l 563 917 b 528 861 563 882 556 861 b 306 979 479 861 382 979 b 208 868 240 979 208 938 l 208 806 l 271 806 l 271 861 b 306 917 271 896 276 917 b 528 799 356 917 444 799 z m 90 188 b 375 -14 90 49 181 -14 b 667 83 542 -14 625 21 l 681 0 l 729 0 l 729 458 b 417 708 729 618 646 708 b 104 472 181 708 104 618 l 104 444 l 174 444 l 174 472 b 417 639 174 593 222 639 b 660 458 604 639 660 590 l 660 303 b 375 389 617 364 533 389 b 90 188 181 389 90 326 z m 375 56 b 160 188 201 56 160 90 b 375 319 160 285 201 319 b 660 188 597 319 660 278 b 375 56 660 97 597 56 z "},"ä":{"ha":833,"x_min":0,"x_max":0,"o":"m 299 833 l 354 833 l 354 972 l 285 972 z m 479 833 l 535 833 l 549 972 l 479 972 z m 90 188 b 375 -14 90 49 181 -14 b 667 83 542 -14 625 21 l 681 0 l 729 0 l 729 458 b 417 708 729 618 646 708 b 104 472 181 708 104 618 l 104 444 l 174 444 l 174 472 b 417 639 174 593 222 639 b 660 458 604 639 660 590 l 660 303 b 375 389 617 364 533 389 b 90 188 181 389 90 326 z m 375 56 b 160 188 201 56 160 90 b 375 319 160 285 201 319 b 660 188 597 319 660 278 b 375 56 660 97 597 56 z "},"å":{"ha":833,"x_min":0,"x_max":0,"o":"m 604 917 b 417 1049 604 1000 549 1049 b 229 917 285 1049 229 1000 b 417 785 229 833 285 785 b 604 917 549 785 604 833 z m 542 917 b 417 840 542 874 514 840 b 292 917 319 840 292 874 b 417 993 292 960 319 993 b 542 917 514 993 542 960 z m 90 188 b 375 -14 90 49 181 -14 b 667 83 542 -14 625 21 l 681 0 l 729 0 l 729 458 b 417 708 729 618 646 708 b 104 472 181 708 104 618 l 104 444 l 174 444 l 174 472 b 417 639 174 593 222 639 b 660 458 604 639 660 590 l 660 303 b 375 389 617 364 533 389 b 90 188 181 389 90 326 z m 375 56 b 160 188 201 56 160 90 b 375 319 160 285 201 319 b 660 188 597 319 660 278 b 375 56 660 97 597 56 z "},"æ":{"ha":1389,"x_min":0,"x_max":0,"o":"m 972 -14 b 1292 181 1214 -14 1292 56 l 1292 243 l 1222 243 l 1222 194 b 972 56 1222 90 1186 56 b 729 292 764 56 729 132 l 729 313 l 1292 313 l 1292 438 b 972 708 1292 611 1221 708 b 694 583 819 708 729 667 b 417 708 660 667 563 708 b 104 472 181 708 104 618 l 104 444 l 174 444 l 174 472 b 417 639 174 590 222 639 b 660 458 604 639 660 590 l 660 306 b 375 389 618 361 535 389 b 90 188 181 389 90 326 b 375 -14 90 49 181 -14 b 701 104 574 -14 667 21 b 972 -14 743 21 824 -14 z m 729 403 b 972 639 729 563 764 639 b 1222 424 1186 639 1222 583 l 1222 382 l 729 382 z m 375 56 b 160 188 201 56 160 90 b 375 319 160 285 201 319 b 660 188 597 319 660 278 b 375 56 660 97 597 56 z "},"ç":{"ha":833,"x_min":0,"x_max":0,"o":"m 417 56 b 167 292 201 56 167 132 l 167 403 b 417 639 167 563 201 639 b 660 486 625 639 660 601 l 660 438 l 729 438 l 729 500 b 417 708 729 633 653 708 b 97 403 167 708 97 604 l 97 292 b 394 -14 97 90 163 -8 l 382 -118 b 472 -160 438 -118 472 -118 b 382 -215 472 -197 450 -215 l 326 -215 l 313 -278 l 382 -278 b 535 -160 479 -278 535 -244 b 444 -69 535 -97 507 -69 l 444 -14 b 729 194 658 -8 729 65 l 729 257 l 660 257 l 660 208 b 417 56 660 94 625 56 z "},"è":{"ha":833,"x_min":0,"x_max":0,"o":"m 442 764 l 379 972 l 310 972 l 310 924 l 400 764 z m 417 56 b 167 292 201 56 167 132 l 167 313 l 736 313 l 736 438 b 417 708 736 611 665 708 b 97 403 167 708 97 604 l 97 292 b 417 -14 97 83 167 -14 b 736 181 658 -14 736 56 l 736 243 l 667 243 l 667 194 b 417 56 667 90 631 56 z m 167 403 b 417 639 167 563 201 639 b 667 424 631 639 667 583 l 667 382 l 167 382 z "},"é":{"ha":833,"x_min":0,"x_max":0,"o":"m 406 764 l 447 764 l 538 924 l 538 972 l 468 972 z m 417 56 b 167 292 201 56 167 132 l 167 313 l 736 313 l 736 438 b 417 708 736 611 665 708 b 97 403 167 708 97 604 l 97 292 b 417 -14 97 83 167 -14 b 736 181 658 -14 736 56 l 736 243 l 667 243 l 667 194 b 417 56 667 90 631 56 z m 167 403 b 417 639 167 563 201 639 b 667 424 631 639 667 583 l 667 382 l 167 382 z "},"ê":{"ha":833,"x_min":0,"x_max":0,"o":"m 500 764 l 556 764 l 556 813 l 438 972 l 396 972 l 278 813 l 278 764 l 333 764 l 417 917 z m 417 56 b 167 292 201 56 167 132 l 167 313 l 736 313 l 736 438 b 417 708 736 611 665 708 b 97 403 167 708 97 604 l 97 292 b 417 -14 97 83 167 -14 b 736 181 658 -14 736 56 l 736 243 l 667 243 l 667 194 b 417 56 667 90 631 56 z m 167 403 b 417 639 167 563 201 639 b 667 424 631 639 667 583 l 667 382 l 167 382 z "},"ë":{"ha":833,"x_min":0,"x_max":0,"o":"m 299 833 l 354 833 l 354 972 l 285 972 z m 479 833 l 535 833 l 549 972 l 479 972 z m 417 56 b 167 292 201 56 167 132 l 167 313 l 736 313 l 736 438 b 417 708 736 611 665 708 b 97 403 167 708 97 604 l 97 292 b 417 -14 97 83 167 -14 b 736 181 658 -14 736 56 l 736 243 l 667 243 l 667 194 b 417 56 667 90 631 56 z m 167 403 b 417 639 167 563 201 639 b 667 424 631 639 667 583 l 667 382 l 167 382 z "},"ì":{"ha":278,"x_min":0,"x_max":0,"o":"m 164 764 l 101 972 l 32 972 l 32 924 l 122 764 z m 104 0 l 174 0 l 174 694 l 104 694 z "},"í":{"ha":278,"x_min":0,"x_max":0,"o":"m 128 764 l 169 764 l 260 924 l 260 972 l 190 972 z m 104 0 l 174 0 l 174 694 l 104 694 z "},"î":{"ha":278,"x_min":0,"x_max":0,"o":"m 222 764 l 278 764 l 278 813 l 160 972 l 118 972 l 0 813 l 0 764 l 56 764 l 139 917 z m 104 0 l 174 0 l 174 694 l 104 694 z "},"ï":{"ha":278,"x_min":0,"x_max":0,"o":"m 21 833 l 76 833 l 76 972 l 7 972 z m 201 833 l 257 833 l 271 972 l 201 972 z m 104 0 l 174 0 l 174 694 l 104 694 z "},"ĩ":{"ha":278,"x_min":0,"x_max":0,"o":"m 250 799 b 347 910 313 799 347 840 l 347 972 l 285 972 l 285 917 b 250 861 285 882 278 861 b 28 979 201 861 104 979 b -69 868 -37 979 -69 938 l -69 806 l -7 806 l -7 861 b 28 917 -7 896 -1 917 b 250 799 78 917 167 799 z m 104 0 l 174 0 l 174 694 l 104 694 z "},"ı":{"ha":278,"x_min":0,"x_max":0,"o":"m 104 0 l 174 0 l 174 694 l 104 694 z "},"ĳ":{"ha":556,"x_min":0,"x_max":0,"o":"m 375 889 l 458 889 l 458 972 l 375 972 z m 97 889 l 181 889 l 181 972 l 97 972 z m 278 -278 b 451 -69 396 -278 451 -222 l 451 694 l 382 694 l 382 -69 b 278 -208 382 -181 354 -208 z m 104 0 l 174 0 l 174 694 l 104 694 z "},"":{"ha":278,"x_min":0,"x_max":0,"o":"m 0 -278 b 174 -69 118 -278 174 -222 l 174 694 l 104 694 l 104 -69 b 0 -208 104 -181 76 -208 z "},"ł":{"ha":278,"x_min":0,"x_max":0,"o":"m 104 0 l 174 0 l 174 529 l 278 563 l 278 625 l 174 592 l 174 972 l 104 972 l 104 568 l 0 535 l 0 472 l 104 506 z "},"ñ":{"ha":833,"x_min":0,"x_max":0,"o":"m 528 799 b 625 910 590 799 625 840 l 625 972 l 563 972 l 563 917 b 528 861 563 882 556 861 b 306 979 479 861 382 979 b 208 868 240 979 208 938 l 208 806 l 271 806 l 271 861 b 306 917 271 896 276 917 b 528 799 356 917 444 799 z m 104 0 l 174 0 l 174 361 b 417 639 174 546 208 639 b 660 361 597 639 660 583 l 660 0 l 729 0 l 729 403 b 438 708 729 611 646 708 b 167 583 271 708 181 653 l 153 694 l 104 694 z "},"ò":{"ha":833,"x_min":0,"x_max":0,"o":"m 442 764 l 379 972 l 310 972 l 310 924 l 400 764 z m 417 -14 b 736 292 667 -14 736 83 l 736 403 b 417 708 736 604 667 708 b 97 403 167 708 97 604 l 97 292 b 417 -14 97 83 167 -14 z m 417 56 b 167 292 199 56 167 132 l 167 403 b 417 639 167 563 199 639 b 667 403 635 639 667 563 l 667 292 b 417 56 667 132 635 56 z "},"ó":{"ha":833,"x_min":0,"x_max":0,"o":"m 406 764 l 447 764 l 538 924 l 538 972 l 468 972 z m 417 -14 b 736 292 667 -14 736 83 l 736 403 b 417 708 736 604 667 708 b 97 403 167 708 97 604 l 97 292 b 417 -14 97 83 167 -14 z m 417 56 b 167 292 199 56 167 132 l 167 403 b 417 639 167 563 199 639 b 667 403 635 639 667 563 l 667 292 b 417 56 667 132 635 56 z "},"ô":{"ha":833,"x_min":0,"x_max":0,"o":"m 500 764 l 556 764 l 556 813 l 438 972 l 396 972 l 278 813 l 278 764 l 333 764 l 417 917 z m 417 -14 b 736 292 667 -14 736 83 l 736 403 b 417 708 736 604 667 708 b 97 403 167 708 97 604 l 97 292 b 417 -14 97 83 167 -14 z m 417 56 b 167 292 199 56 167 132 l 167 403 b 417 639 167 563 199 639 b 667 403 635 639 667 563 l 667 292 b 417 56 667 132 635 56 z "},"õ":{"ha":833,"x_min":0,"x_max":0,"o":"m 528 799 b 625 910 590 799 625 840 l 625 972 l 563 972 l 563 917 b 528 861 563 882 556 861 b 306 979 479 861 382 979 b 208 868 240 979 208 938 l 208 806 l 271 806 l 271 861 b 306 917 271 896 276 917 b 528 799 356 917 444 799 z m 417 -14 b 736 292 667 -14 736 83 l 736 403 b 417 708 736 604 667 708 b 97 403 167 708 97 604 l 97 292 b 417 -14 97 83 167 -14 z m 417 56 b 167 292 199 56 167 132 l 167 403 b 417 639 167 563 199 639 b 667 403 635 639 667 563 l 667 292 b 417 56 667 132 635 56 z "},"ö":{"ha":833,"x_min":0,"x_max":0,"o":"m 299 833 l 354 833 l 354 972 l 285 972 z m 479 833 l 535 833 l 549 972 l 479 972 z m 417 -14 b 736 292 667 -14 736 83 l 736 403 b 417 708 736 604 667 708 b 97 403 167 708 97 604 l 97 292 b 417 -14 97 83 167 -14 z m 417 56 b 167 292 199 56 167 132 l 167 403 b 417 639 167 563 199 639 b 667 403 635 639 667 563 l 667 292 b 417 56 667 132 635 56 z "},"ø":{"ha":833,"x_min":0,"x_max":0,"o":"m 417 639 b 594 604 501 639 557 628 l 192 140 b 167 292 172 178 167 228 l 167 403 b 417 639 167 563 199 639 z m 69 0 l 118 -49 l 192 36 b 417 -14 242 3 314 -14 b 736 292 667 -14 736 83 l 736 403 b 689 608 736 489 724 558 l 764 694 l 715 743 l 640 657 b 417 708 590 690 519 708 b 97 403 167 708 97 604 l 97 292 b 143 85 97 203 110 135 z m 417 56 b 239 90 332 56 276 67 l 642 554 b 667 403 661 517 667 467 l 667 292 b 417 56 667 132 635 56 z "},"œ":{"ha":1389,"x_min":0,"x_max":0,"o":"m 97 403 l 97 292 b 417 -14 97 83 167 -14 b 694 125 569 -14 653 14 b 979 -14 736 14 819 -14 b 1292 181 1215 -14 1292 56 l 1292 243 l 1222 243 l 1222 194 b 979 56 1222 90 1188 56 b 729 292 764 56 729 132 l 729 313 l 1292 313 l 1292 438 b 979 708 1292 611 1222 708 b 694 569 819 708 736 674 b 417 708 653 674 569 708 b 97 403 167 708 97 604 z m 729 403 b 979 639 729 563 764 639 b 1222 424 1188 639 1222 583 l 1222 382 l 729 382 z m 167 292 l 167 403 b 417 639 167 563 201 639 b 660 403 625 639 660 563 l 660 292 b 417 56 660 132 625 56 b 167 292 201 56 167 132 z "},"š":{"ha":833,"x_min":0,"x_max":0,"o":"m 278 972 l 368 764 l 451 764 l 542 972 l 486 972 l 410 838 l 333 972 z m 743 174 b 417 382 743 306 674 354 b 174 521 253 401 174 431 b 417 639 174 604 226 639 b 660 486 618 639 660 601 l 660 458 l 729 458 l 729 500 b 417 708 729 633 653 708 b 104 521 190 708 104 639 b 417 313 104 389 171 339 b 674 174 590 292 674 264 b 417 56 674 90 618 56 b 174 208 215 56 174 94 l 174 236 l 104 236 l 104 194 b 417 -14 104 61 181 -14 b 743 174 653 -14 743 56 z "},"ß":{"ha":1111,"x_min":0,"x_max":0,"o":"m 417 903 b 674 792 625 903 674 878 b 535 660 674 729 639 688 b 368 486 438 632 368 604 b 694 313 368 389 486 333 b 951 174 854 299 951 264 b 694 56 951 79 903 56 b 451 194 486 56 451 83 l 451 222 l 382 222 l 382 181 b 694 -14 382 49 451 -14 b 1021 188 951 -14 1021 42 b 694 382 1021 292 924 354 b 438 500 535 403 438 421 b 569 604 438 557 458 569 b 743 785 681 639 743 688 b 417 972 743 914 667 972 l 278 972 b 104 764 167 972 104 889 l 104 0 l 174 0 l 174 764 b 278 903 174 875 215 903 z "},"ù":{"ha":833,"x_min":0,"x_max":0,"o":"m 442 764 l 379 972 l 310 972 l 310 924 l 400 764 z m 667 111 l 681 0 l 729 0 l 729 694 l 660 694 l 660 333 b 417 56 660 146 625 56 b 174 333 236 56 174 111 l 174 694 l 104 694 l 104 292 b 396 -14 104 83 188 -14 b 667 111 563 -14 653 42 z "},"ú":{"ha":833,"x_min":0,"x_max":0,"o":"m 406 764 l 447 764 l 538 924 l 538 972 l 468 972 z m 667 111 l 681 0 l 729 0 l 729 694 l 660 694 l 660 333 b 417 56 660 146 625 56 b 174 333 236 56 174 111 l 174 694 l 104 694 l 104 292 b 396 -14 104 83 188 -14 b 667 111 563 -14 653 42 z "},"û":{"ha":833,"x_min":0,"x_max":0,"o":"m 500 764 l 556 764 l 556 813 l 438 972 l 396 972 l 278 813 l 278 764 l 333 764 l 417 917 z m 667 111 l 681 0 l 729 0 l 729 694 l 660 694 l 660 333 b 417 56 660 146 625 56 b 174 333 236 56 174 111 l 174 694 l 104 694 l 104 292 b 396 -14 104 83 188 -14 b 667 111 563 -14 653 42 z "},"ü":{"ha":833,"x_min":0,"x_max":0,"o":"m 299 833 l 354 833 l 354 972 l 285 972 z m 479 833 l 535 833 l 549 972 l 479 972 z m 667 111 l 681 0 l 729 0 l 729 694 l 660 694 l 660 333 b 417 56 660 146 625 56 b 174 333 236 56 174 111 l 174 694 l 104 694 l 104 292 b 396 -14 104 83 188 -14 b 667 111 563 -14 653 42 z "},"ũ":{"ha":833,"x_min":0,"x_max":0,"o":"m 528 799 b 625 910 590 799 625 840 l 625 972 l 563 972 l 563 917 b 528 861 563 882 556 861 b 306 979 479 861 382 979 b 208 868 240 979 208 938 l 208 806 l 271 806 l 271 861 b 306 917 271 896 276 917 b 528 799 356 917 444 799 z m 667 111 l 681 0 l 729 0 l 729 694 l 660 694 l 660 333 b 417 56 660 146 625 56 b 174 333 236 56 174 111 l 174 694 l 104 694 l 104 292 b 396 -14 104 83 188 -14 b 667 111 563 -14 653 42 z "},"ý":{"ha":833,"x_min":0,"x_max":0,"o":"m 406 764 l 447 764 l 538 924 l 538 972 l 468 972 z m 729 556 l 729 694 l 660 694 l 660 556 b 417 71 660 361 608 213 b 174 556 225 213 174 361 l 174 694 l 104 694 l 104 556 b 382 14 104 354 163 158 l 382 -278 l 451 -278 l 451 14 b 729 556 671 158 729 354 z "},"ŷ":{"ha":833,"x_min":0,"x_max":0,"o":"m 500 764 l 556 764 l 556 813 l 438 972 l 396 972 l 278 813 l 278 764 l 333 764 l 417 917 z m 729 556 l 729 694 l 660 694 l 660 556 b 417 71 660 361 608 213 b 174 556 225 213 174 361 l 174 694 l 104 694 l 104 556 b 382 14 104 354 163 158 l 382 -278 l 451 -278 l 451 14 b 729 556 671 158 729 354 z "},"ÿ":{"ha":833,"x_min":0,"x_max":0,"o":"m 299 833 l 354 833 l 354 972 l 285 972 z m 479 833 l 535 833 l 549 972 l 479 972 z m 729 556 l 729 694 l 660 694 l 660 556 b 417 71 660 361 608 213 b 174 556 225 213 174 361 l 174 694 l 104 694 l 104 556 b 382 14 104 354 163 158 l 382 -278 l 451 -278 l 451 14 b 729 556 671 158 729 354 z "},"ỳ":{"ha":833,"x_min":0,"x_max":0,"o":"m 442 764 l 379 972 l 310 972 l 310 924 l 400 764 z m 729 556 l 729 694 l 660 694 l 660 556 b 417 71 660 361 608 213 b 174 556 225 213 174 361 l 174 694 l 104 694 l 104 556 b 382 14 104 354 163 158 l 382 -278 l 451 -278 l 451 14 b 729 556 671 158 729 354 z "},"ž":{"ha":833,"x_min":0,"x_max":0,"o":"m 278 972 l 368 764 l 451 764 l 542 972 l 486 972 l 410 838 l 333 972 z m 56 0 l 764 0 l 764 69 l 368 69 l 182 60 l 764 667 l 764 694 l 69 694 l 69 625 l 451 625 l 638 635 l 56 28 z "},"ð":{"ha":833,"x_min":0,"x_max":0,"o":"m 417 56 b 167 292 201 56 167 135 l 167 361 b 410 639 167 583 229 639 b 664 444 596 639 650 574 b 667 364 665 419 667 393 l 667 361 b 417 56 667 125 632 56 z m 243 736 l 451 819 b 614 628 526 756 579 696 b 368 708 568 676 492 708 b 97 403 183 708 97 611 l 97 292 b 417 -14 97 111 172 -14 b 736 361 661 -14 736 111 b 525 849 736 567 681 706 l 660 903 l 660 972 l 469 896 b 368 972 439 921 406 946 l 278 972 l 278 951 b 393 865 321 921 358 893 l 243 806 z "},"þ":{"ha":833,"x_min":0,"x_max":0,"o":"m 417 639 b 660 361 597 639 660 583 l 660 333 b 417 56 660 111 597 56 b 174 333 208 56 174 146 l 174 361 b 417 639 174 549 208 639 z m 174 97 b 417 -14 215 28 271 -14 b 729 333 653 -14 729 97 l 729 361 b 417 708 729 597 653 708 b 167 583 264 708 208 667 l 167 972 l 104 972 l 104 -278 l 174 -278 z "},"`":{"ha":278,"x_min":0,"x_max":0,"o":"m 194 764 l 132 972 l 63 972 l 63 924 l 153 764 z "},"´":{"ha":278,"x_min":0,"x_max":0,"o":"m 83 764 l 125 764 l 215 924 l 215 972 l 146 972 z "},"ˆ":{"ha":278,"x_min":0,"x_max":0,"o":"m 222 764 l 278 764 l 278 813 l 160 972 l 118 972 l 0 813 l 0 764 l 56 764 l 139 917 z "},"ˇ":{"ha":278,"x_min":0,"x_max":0,"o":"m 7 972 l 97 764 l 181 764 l 271 972 l 215 972 l 139 838 l 63 972 z "},"˜":{"ha":278,"x_min":0,"x_max":0,"o":"m 250 799 b 347 910 313 799 347 840 l 347 972 l 285 972 l 285 917 b 250 861 285 882 278 861 b 28 979 201 861 104 979 b -69 868 -37 979 -69 938 l -69 806 l -7 806 l -7 861 b 28 917 -7 896 -1 917 b 250 799 78 917 167 799 z "},"¨":{"ha":278,"x_min":0,"x_max":0,"o":"m 21 833 l 76 833 l 76 972 l 7 972 z m 201 833 l 257 833 l 271 972 l 201 972 z "},"˚":{"ha":556,"x_min":0,"x_max":0,"o":"m 465 917 b 278 1049 465 1000 410 1049 b 90 917 146 1049 90 1000 b 278 785 90 833 146 785 b 465 917 410 785 465 833 z m 403 917 b 278 840 403 874 375 840 b 153 917 181 840 153 874 b 278 993 153 960 181 993 b 403 917 375 993 403 960 z "},"˙":{"ha":278,"x_min":0,"x_max":0,"o":"m 194 924 b 139 979 194 965 181 979 b 83 924 97 979 83 965 b 139 868 83 882 97 868 b 194 924 181 868 194 882 z "},"¸":{"ha":278,"x_min":0,"x_max":0,"o":"m 111 0 l 97 -118 b 188 -160 153 -118 188 -118 b 97 -215 188 -197 165 -215 l 42 -215 l 28 -278 l 97 -278 b 250 -160 194 -278 250 -244 b 160 -69 250 -97 222 -69 l 160 0 z "},",":{"ha":278,"x_min":0,"x_max":0,"o":"m 97 0 l 111 0 l 111 -139 l 153 -139 l 181 49 l 181 83 l 97 83 z "},";":{"ha":278,"x_min":0,"x_max":0,"o":"m 97 306 l 181 306 l 181 389 l 97 389 z m 97 0 l 111 0 l 111 -139 l 153 -139 l 181 49 l 181 83 l 97 83 z "},":":{"ha":278,"x_min":0,"x_max":0,"o":"m 97 611 l 181 611 l 181 694 l 97 694 z m 97 0 l 181 0 l 181 83 l 97 83 z "},".":{"ha":278,"x_min":0,"x_max":0,"o":"m 97 0 l 181 0 l 181 83 l 97 83 z "},"…":{"ha":833,"x_min":0,"x_max":0,"o":"m 97 0 l 181 0 l 181 83 l 97 83 z m 375 0 l 458 0 l 458 83 l 375 83 z m 653 0 l 736 0 l 736 83 l 653 83 z "},"!":{"ha":278,"x_min":0,"x_max":0,"o":"m 118 278 l 160 278 l 174 694 l 174 972 l 104 972 l 104 694 z m 97 0 l 181 0 l 181 83 l 97 83 z "},"¡":{"ha":278,"x_min":0,"x_max":0,"o":"m 179 694 l 96 694 l 96 611 l 179 611 z m 158 417 l 117 417 l 103 0 l 103 -278 l 172 -278 l 172 0 z "},"?":{"ha":278,"x_min":0,"x_max":0,"o":"m 111 417 l 118 278 l 160 278 l 167 417 b 313 799 175 586 313 674 b 139 986 313 917 250 986 b -35 778 35 986 -35 917 l -35 694 l 35 694 l 35 778 b 139 917 35 889 76 917 b 243 799 201 917 243 890 b 111 417 243 707 103 593 z m 97 0 l 181 0 l 181 83 l 97 83 z "},"¿":{"ha":278,"x_min":0,"x_max":0,"o":"m 181 694 l 97 694 l 97 611 l 181 611 z m 167 278 l 160 417 l 118 417 l 111 278 b -35 -104 103 108 -35 21 b 139 -292 -35 -222 28 -292 b 313 -83 243 -292 313 -222 l 313 0 l 243 0 l 243 -83 b 139 -222 243 -194 201 -222 b 35 -104 76 -222 35 -196 b 167 278 35 -12 175 101 z "},"‘":{"ha":278,"x_min":0,"x_max":0,"o":"m 194 757 l 167 757 l 167 972 l 125 972 l 90 743 l 90 694 l 194 694 z "},"’":{"ha":278,"x_min":0,"x_max":0,"o":"m 83 910 l 111 910 l 111 694 l 153 694 l 188 924 l 188 972 l 83 972 z "},"“":{"ha":556,"x_min":0,"x_max":0,"o":"m 472 757 l 444 757 l 444 972 l 403 972 l 368 743 l 368 694 l 472 694 z m 194 757 l 167 757 l 167 972 l 125 972 l 90 743 l 90 694 l 194 694 z "},"”":{"ha":556,"x_min":0,"x_max":0,"o":"m 83 910 l 111 910 l 111 694 l 153 694 l 188 924 l 188 972 l 83 972 z m 361 910 l 389 910 l 389 694 l 431 694 l 465 924 l 465 972 l 361 972 z "},"‚":{"ha":278,"x_min":0,"x_max":0,"o":"m 83 -62 l 111 -62 l 111 -278 l 153 -278 l 188 -49 l 188 0 l 83 0 z "},"„":{"ha":556,"x_min":0,"x_max":0,"o":"m 83 -62 l 111 -62 l 111 -278 l 153 -278 l 188 -49 l 188 0 l 83 0 z m 361 -62 l 389 -62 l 389 -278 l 431 -278 l 465 -49 l 465 0 l 361 0 z "},"'":{"ha":278,"x_min":0,"x_max":0,"o":"m 104 903 l 118 694 l 160 694 l 174 903 l 174 972 l 104 972 z "},"\"":{"ha":278,"x_min":0,"x_max":0,"o":"m 42 875 l 63 694 l 111 694 l 111 972 l 42 972 z m 167 694 l 215 694 l 236 875 l 236 972 l 167 972 z "},"‹":{"ha":278,"x_min":0,"x_max":0,"o":"m 28 347 l 167 139 l 236 139 l 97 347 l 236 556 l 167 556 z "},"›":{"ha":278,"x_min":0,"x_max":0,"o":"m 250 347 l 111 556 l 42 556 l 181 347 l 42 139 l 111 139 z "},"«":{"ha":556,"x_min":0,"x_max":0,"o":"m 56 347 l 194 139 l 264 139 l 125 347 l 264 556 l 194 556 z m 264 347 l 403 139 l 472 139 l 333 347 l 472 556 l 403 556 z "},"»":{"ha":556,"x_min":0,"x_max":0,"o":"m 500 347 l 361 556 l 292 556 l 431 347 l 292 139 l 361 139 z m 292 347 l 153 556 l 83 556 l 222 347 l 83 139 l 153 139 z "},"/":{"ha":278,"x_min":0,"x_max":0,"o":"m 0 0 l 69 0 l 278 972 l 208 972 z "},"\\":{"ha":278,"x_min":0,"x_max":0,"o":"m 278 0 l 69 972 l 0 972 l 208 0 z "},"|":{"ha":278,"x_min":0,"x_max":0,"o":"m 104 0 l 174 0 l 174 972 l 104 972 z "},"¦":{"ha":278,"x_min":0,"x_max":0,"o":"m 104 556 l 174 556 l 174 972 l 104 972 z m 104 0 l 174 0 l 174 417 l 104 417 z "},"-":{"ha":278,"x_min":0,"x_max":0,"o":"m 0 347 l 278 347 l 278 417 l 0 417 z "},"–":{"ha":833,"x_min":0,"x_max":0,"o":"m 764 347 l 764 417 l 69 417 l 69 347 z "},"_":{"ha":556,"x_min":0,"x_max":0,"o":"m 0 -208 l 0 -278 l 556 -278 l 556 -208 z "},"—":{"ha":1389,"x_min":0,"x_max":0,"o":"m 1319 347 l 1319 417 l 69 417 l 69 347 z "},"•":{"ha":278,"x_min":0,"x_max":0,"o":"m 278 313 l 278 382 l 215 382 b 153 347 188 382 174 368 l 139 361 b 174 424 167 375 174 396 l 174 486 l 104 486 l 104 424 b 139 361 104 396 118 382 l 125 347 b 63 382 104 368 90 382 l 0 382 l 0 313 l 63 313 b 125 347 90 313 104 326 l 139 333 b 104 271 118 313 104 299 l 104 208 l 174 208 l 174 271 b 139 333 174 299 164 317 l 153 347 b 215 313 174 326 188 313 z "},"·":{"ha":278,"x_min":0,"x_max":0,"o":"m 69 278 l 208 278 l 208 417 l 69 417 z "},"(":{"ha":278,"x_min":0,"x_max":0,"o":"m 104 778 l 104 -83 b 278 -278 104 -222 174 -278 l 278 -208 b 174 -83 215 -208 174 -183 l 174 778 b 278 903 174 878 215 903 l 278 972 b 104 778 174 972 104 917 z "},")":{"ha":278,"x_min":0,"x_max":0,"o":"m 174 -83 l 174 778 b 0 972 174 917 104 972 l 0 903 b 104 778 63 903 104 878 l 104 -83 b 0 -208 104 -183 63 -208 l 0 -278 b 174 -83 104 -278 174 -222 z "},"[":{"ha":278,"x_min":0,"x_max":0,"o":"m 104 972 l 104 -278 l 278 -278 l 278 -208 l 174 -208 l 174 903 l 278 903 l 278 972 z "},"]":{"ha":278,"x_min":0,"x_max":0,"o":"m 174 -278 l 174 972 l 0 972 l 0 903 l 104 903 l 104 -208 l 0 -208 l 0 -278 z "},"{":{"ha":278,"x_min":0,"x_max":0,"o":"m 104 778 l 104 486 b 0 375 104 410 82 396 l 0 319 b 104 208 83 299 104 285 l 104 -83 b 278 -278 104 -222 181 -278 l 278 -208 b 174 -83 215 -208 174 -183 l 174 208 b 104 347 174 292 146 333 b 174 486 146 361 174 403 l 174 778 b 278 903 174 878 215 903 l 278 972 b 104 778 181 972 104 917 z "},"}":{"ha":278,"x_min":0,"x_max":0,"o":"m 174 -83 l 174 208 b 278 319 174 285 196 299 l 278 375 b 174 486 194 396 174 410 l 174 778 b 0 972 174 917 97 972 l 0 903 b 104 778 63 903 104 878 l 104 486 b 174 347 104 403 132 361 b 104 208 132 333 104 292 l 104 -83 b 0 -208 104 -183 63 -208 l 0 -278 b 174 -83 97 -278 174 -222 z "},"*":{"ha":278,"x_min":0,"x_max":0,"o":"m 111 819 l 63 778 l 35 736 l 69 715 l 97 750 l 125 806 l 153 806 l 181 750 l 208 715 l 243 736 l 215 778 l 167 819 l 167 833 l 229 840 l 278 861 l 264 896 l 215 882 l 160 847 l 146 861 l 160 924 l 160 972 l 118 972 l 118 924 l 132 861 l 118 847 l 63 882 l 14 896 l 0 861 l 49 840 l 111 833 z "},"†":{"ha":833,"x_min":0,"x_max":0,"o":"m 382 -139 l 451 -139 l 451 521 l 440 636 l 556 625 l 799 625 l 799 694 l 556 694 l 440 683 l 451 799 l 451 972 l 382 972 l 382 799 l 393 683 l 278 694 l 35 694 l 35 625 l 278 625 l 393 636 l 382 521 z "},"‡":{"ha":833,"x_min":0,"x_max":0,"o":"m 35 69 l 35 0 l 278 0 l 393 11 l 382 -104 l 382 -278 l 451 -278 l 451 -104 l 440 11 l 556 0 l 799 0 l 799 69 l 556 69 l 440 58 l 451 174 l 451 521 l 440 636 l 556 625 l 799 625 l 799 694 l 556 694 l 440 683 l 451 799 l 451 972 l 382 972 l 382 799 l 393 683 l 278 694 l 35 694 l 35 625 l 278 625 l 393 636 l 382 521 l 382 174 l 393 58 l 278 69 z "},"§":{"ha":833,"x_min":0,"x_max":0,"o":"m 90 486 b 417 278 90 354 167 292 b 674 167 583 271 674 243 b 417 56 674 83 625 56 b 174 194 208 56 174 83 l 174 222 l 104 222 l 104 181 b 417 -14 104 56 167 -14 b 743 174 667 -14 743 49 b 640 307 743 236 704 288 b 743 486 713 339 743 397 b 417 694 743 618 667 681 b 160 806 250 701 160 729 b 417 917 160 889 208 917 b 660 778 625 917 660 889 l 660 750 l 729 750 l 729 792 b 417 986 729 917 667 986 b 90 799 167 986 90 924 b 193 665 90 736 129 685 b 90 486 121 633 90 575 z m 674 486 b 417 340 674 368 625 340 b 160 486 250 340 160 389 b 417 632 160 604 208 632 b 674 486 583 632 674 583 z "},"¶":{"ha":833,"x_min":0,"x_max":0,"o":"m 382 -139 l 451 -139 l 451 903 l 660 903 l 660 -139 l 729 -139 l 729 903 l 819 903 l 819 972 l 264 972 b 56 764 153 972 56 889 b 264 556 56 639 153 556 l 382 556 z "},"@":{"ha":833,"x_min":0,"x_max":0,"o":"m 417 69 b 174 347 271 69 174 160 l 174 625 b 417 903 174 813 271 903 l 486 903 b 660 743 590 903 660 854 l 660 653 b 535 708 644 682 604 708 b 382 500 438 708 382 639 l 382 472 b 535 264 382 333 438 264 b 667 319 604 264 653 292 l 674 278 l 729 278 l 729 743 b 486 972 729 889 632 972 l 417 972 b 104 625 229 972 104 847 l 104 347 b 417 0 104 125 229 0 l 764 0 l 764 69 z m 451 472 l 451 500 b 556 639 451 611 493 639 b 660 500 618 639 660 611 l 660 472 b 556 333 660 361 618 333 b 451 472 493 333 451 361 z "},"©":{"ha":1111,"x_min":0,"x_max":0,"o":"m 556 903 b 938 569 861 903 938 778 l 938 403 b 556 69 938 174 861 69 b 174 403 250 69 174 174 l 174 569 b 556 903 174 799 250 903 z m 729 444 l 729 458 l 660 458 l 660 444 b 556 368 660 393 618 368 b 444 472 479 368 444 389 l 444 500 b 556 604 444 583 479 604 b 660 528 618 604 660 579 l 660 514 l 729 514 l 729 528 b 556 674 729 629 674 674 b 368 500 438 674 368 639 l 368 472 b 556 299 368 333 438 299 b 729 444 674 299 729 343 z m 514 0 l 597 0 b 1007 375 882 0 1007 153 l 1007 597 b 597 972 1007 819 882 972 l 514 972 b 104 597 229 972 104 819 l 104 375 b 514 0 104 153 229 0 z "},"®":{"ha":1111,"x_min":0,"x_max":0,"o":"m 556 903 b 938 569 861 903 938 778 l 938 403 b 556 69 938 174 861 69 b 174 403 250 69 174 174 l 174 569 b 556 903 174 799 250 903 z m 451 278 l 451 382 l 535 382 b 660 278 604 382 651 356 l 729 278 b 639 403 729 347 701 396 l 639 417 b 736 549 690 429 736 479 b 556 694 736 643 678 694 l 382 694 l 382 278 z m 653 535 b 549 451 653 476 632 451 l 451 451 l 451 625 l 549 625 b 653 535 632 625 653 601 z m 514 0 l 597 0 b 1007 375 882 0 1007 153 l 1007 597 b 597 972 1007 819 882 972 l 514 972 b 104 597 229 972 104 819 l 104 375 b 514 0 104 153 229 0 z "},"™":{"ha":1111,"x_min":0,"x_max":0,"o":"m 174 556 l 174 903 l 313 903 l 313 972 l -35 972 l -35 903 l 104 903 l 104 556 z m 382 556 l 451 556 l 451 868 b 660 597 597 729 660 653 l 660 556 l 729 556 l 729 597 b 938 868 729 651 790 726 l 938 556 l 1007 556 l 1007 972 l 938 972 l 854 889 b 694 690 761 796 717 738 b 535 889 672 738 628 796 l 451 972 l 382 972 z "},"ª":{"ha":556,"x_min":0,"x_max":0,"o":"m 97 778 l 97 750 b 257 542 97 611 143 542 b 389 625 326 542 376 578 l 403 625 l 417 556 l 465 556 l 465 972 l 417 972 l 403 903 l 389 903 b 257 986 376 950 326 986 b 97 778 143 986 97 917 z m 486 313 l 486 382 l 69 382 l 69 313 z m 278 611 b 174 743 208 611 174 646 l 174 785 b 278 917 174 882 208 917 b 389 785 354 917 389 881 l 389 743 b 278 611 389 647 354 611 z "},"º":{"ha":556,"x_min":0,"x_max":0,"o":"m 465 764 b 278 986 465 917 394 986 b 90 764 161 986 90 917 b 278 542 90 611 161 542 b 465 764 394 542 465 611 z m 396 764 b 278 611 396 653 363 611 b 160 764 193 611 160 653 b 278 917 160 875 193 917 b 396 764 363 917 396 875 z m 486 313 l 486 382 l 69 382 l 69 313 z "},"#":{"ha":556,"x_min":0,"x_max":0,"o":"m 313 0 l 382 0 l 424 278 l 556 278 l 556 347 l 431 347 l 472 625 l 556 625 l 556 694 l 472 694 l 500 832 l 521 972 l 451 972 l 410 694 l 194 694 l 222 833 l 243 972 l 174 972 l 132 694 l 0 694 l 0 625 l 125 625 l 83 347 l 0 347 l 0 278 l 83 278 l 56 139 l 35 0 l 104 0 l 146 278 l 361 278 l 333 139 z m 368 340 l 146 340 l 188 632 l 410 632 z "},"€":{"ha":833,"x_min":0,"x_max":0,"o":"m 0 347 l 104 347 l 104 306 b 375 0 104 76 181 0 l 458 0 b 729 306 639 0 729 76 l 729 347 l 660 347 l 660 333 b 417 69 660 104 611 69 b 174 333 208 69 174 104 l 174 347 l 514 347 l 521 417 l 174 417 l 174 556 l 542 556 l 549 625 l 174 625 l 174 639 b 417 903 174 868 208 903 b 660 639 611 903 660 868 l 660 625 l 729 625 l 729 667 b 458 972 729 896 639 972 l 375 972 b 104 667 181 972 104 896 l 104 625 l 28 625 l 21 556 l 104 556 l 104 417 l 7 417 z "},"$":{"ha":833,"x_min":0,"x_max":0,"o":"m 382 -69 l 451 -69 l 451 1 b 722 264 654 10 722 106 b 451 510 722 431 588 476 l 451 903 b 660 639 606 897 660 853 l 660 625 l 722 625 l 722 667 b 458 972 722 889 625 972 l 451 972 l 451 1042 l 382 1042 l 382 971 b 104 708 179 963 104 867 b 382 460 104 539 243 494 l 382 69 b 167 333 228 75 167 119 l 167 347 l 104 347 l 104 306 b 375 0 104 83 201 0 l 382 0 z m 167 708 b 382 901 167 826 210 894 l 382 528 b 167 708 267 557 167 593 z m 660 264 b 451 71 660 147 617 78 l 451 443 b 660 264 564 414 660 376 z "},"¢":{"ha":833,"x_min":0,"x_max":0,"o":"m 167 292 l 167 403 b 382 638 167 554 197 631 l 382 57 b 167 292 197 64 167 140 z m 382 -69 l 451 -69 l 451 -14 b 729 194 660 -6 729 69 l 729 257 l 660 257 l 660 208 b 451 56 660 104 629 61 l 451 639 b 660 486 629 635 660 597 l 660 438 l 729 438 l 729 500 b 451 708 729 625 660 700 l 451 764 l 382 764 l 382 707 b 97 403 160 699 97 594 l 97 292 b 382 -14 97 93 160 -4 z "},"¥":{"ha":833,"x_min":0,"x_max":0,"o":"m 69 313 l 382 313 l 382 0 l 451 0 l 451 313 l 764 313 l 764 382 l 597 382 l 464 369 b 679 625 572 443 639 531 l 764 625 l 764 694 l 703 694 b 729 903 722 761 729 832 l 729 972 l 660 972 l 660 903 b 417 418 660 708 608 560 b 174 903 225 560 174 708 l 174 972 l 104 972 l 104 903 b 131 694 104 832 111 761 l 69 694 l 69 625 l 154 625 b 369 369 194 531 261 443 l 236 382 l 69 382 z "},"⁄":{"ha":0,"x_min":0,"x_max":0,"o":"m -500 0 l -403 0 l 500 972 l 403 972 z "},"½":{"ha":833,"x_min":0,"x_max":0,"o":"m 0 0 l 76 0 l 625 972 l 549 972 z m 104 556 l 174 556 l 174 972 l 42 972 l 28 903 l 104 903 z m 382 76 l 382 0 l 729 0 l 729 125 l 660 125 l 660 69 l 521 69 b 465 56 493 69 479 69 l 451 63 b 729 292 451 229 729 92 b 556 431 729 396 649 431 b 382 264 451 431 382 389 l 451 264 b 556 361 451 333 486 361 b 660 292 611 361 660 347 b 382 76 660 174 382 278 z "},"¼":{"ha":694,"x_min":0,"x_max":0,"o":"m 0 0 l 76 0 l 625 972 l 549 972 z m 104 556 l 174 556 l 174 972 l 42 972 l 28 903 l 104 903 z m 590 -69 l 590 208 l 569 208 l 521 160 l 521 69 l 375 69 l 326 56 l 319 69 l 361 104 l 563 396 l 563 417 l 486 417 l 243 56 l 243 0 l 521 0 l 521 -69 z "},"¾":{"ha":972,"x_min":0,"x_max":0,"o":"m 208 0 l 285 0 l 833 972 l 757 972 z m 458 688 b 340 806 458 750 426 806 l 340 819 l 458 917 l 458 972 l 104 972 l 104 903 l 271 903 b 333 917 285 903 313 910 l 340 903 l 222 799 l 222 750 l 306 750 b 382 694 349 750 382 736 b 278 611 382 639 344 611 b 174 708 210 611 174 632 l 174 722 l 104 722 l 104 708 b 278 542 104 590 163 542 b 458 688 382 542 458 597 z m 868 -69 l 868 208 l 847 208 l 799 160 l 799 69 l 653 69 l 604 56 l 597 69 l 639 104 l 840 396 l 840 417 l 764 417 l 521 56 l 521 0 l 799 0 l 799 -69 z "},"%":{"ha":1111,"x_min":0,"x_max":0,"o":"m 465 764 b 278 986 465 917 396 986 b 90 764 160 986 90 917 b 278 542 90 611 160 542 b 465 764 396 542 465 611 z m 139 0 l 229 0 l 972 972 l 882 972 z m 396 764 b 278 611 396 653 361 611 b 160 764 194 611 160 653 b 278 917 160 875 194 917 b 396 764 361 917 396 875 z m 1021 208 b 833 431 1021 361 951 431 b 646 208 715 431 646 361 b 833 -14 646 56 715 -14 b 1021 208 951 -14 1021 56 z m 951 208 b 833 56 951 97 917 56 b 715 208 750 56 715 97 b 833 361 715 319 750 361 b 951 208 917 361 951 319 z "},"‰":{"ha":1389,"x_min":0,"x_max":0,"o":"m 465 764 b 278 986 465 917 396 986 b 90 764 160 986 90 917 b 278 542 90 611 160 542 b 465 764 396 542 465 611 z m 139 0 l 229 0 l 972 972 l 882 972 z m 396 764 b 278 611 396 653 361 611 b 160 764 194 611 160 653 b 278 917 160 875 194 917 b 396 764 361 917 396 875 z m 1125 -14 b 1313 208 1243 -14 1313 56 b 1125 431 1313 361 1243 431 b 972 347 1056 431 1000 410 b 819 431 944 410 889 431 b 632 208 701 431 632 361 b 819 -14 632 56 701 -14 b 972 69 889 -14 944 7 b 1125 -14 1000 7 1056 -14 z m 938 208 b 819 56 938 97 903 56 b 701 208 736 56 701 97 b 819 361 701 319 736 361 b 938 208 903 361 938 319 z m 1243 208 b 1125 56 1243 97 1208 56 b 1007 208 1042 56 1007 97 b 1125 361 1007 319 1042 361 b 1243 208 1208 361 1243 319 z "},"+":{"ha":833,"x_min":0,"x_max":0,"o":"m 764 313 l 764 382 l 528 382 l 444 375 l 451 458 l 451 694 l 382 694 l 382 458 l 389 375 l 306 382 l 69 382 l 69 313 l 306 313 l 389 319 l 382 236 l 382 0 l 451 0 l 451 236 l 444 319 l 528 313 z "},"−":{"ha":833,"x_min":0,"x_max":0,"o":"m 764 313 l 764 382 l 69 382 l 69 313 z "},"±":{"ha":833,"x_min":0,"x_max":0,"o":"m 764 347 l 528 347 l 444 340 l 451 424 l 451 549 l 444 632 l 528 625 l 764 625 l 764 694 l 528 694 l 444 688 l 451 771 l 451 972 l 382 972 l 382 771 l 389 688 l 306 694 l 69 694 l 69 625 l 306 625 l 389 632 l 382 549 l 382 424 l 389 340 l 306 347 l 69 347 l 69 278 l 764 278 z "},"×":{"ha":833,"x_min":0,"x_max":0,"o":"m 688 569 l 639 618 l 472 451 l 417 389 l 361 451 l 194 618 l 146 569 l 313 403 l 375 347 l 313 292 l 146 125 l 194 76 l 361 243 l 417 306 l 472 243 l 639 76 l 688 125 l 521 292 l 458 347 l 521 403 z "},"÷":{"ha":833,"x_min":0,"x_max":0,"o":"m 375 611 l 458 611 l 458 694 l 375 694 z m 764 313 l 764 382 l 69 382 l 69 313 z m 375 0 l 458 0 l 458 83 l 375 83 z "},"=":{"ha":833,"x_min":0,"x_max":0,"o":"m 764 625 l 764 694 l 69 694 l 69 625 z m 764 278 l 764 347 l 69 347 l 69 278 z "},"≠":{"ha":833,"x_min":0,"x_max":0,"o":"m 69 97 l 160 97 l 301 278 l 764 278 l 764 347 l 356 347 l 574 625 l 764 625 l 764 694 l 628 694 l 764 868 l 674 868 l 538 694 l 69 694 l 69 625 l 483 625 l 265 347 l 69 347 l 69 278 l 211 278 z "},"~":{"ha":556,"x_min":0,"x_max":0,"o":"m 389 236 b 486 347 451 236 486 278 l 486 410 l 424 410 l 424 354 b 389 299 424 319 417 299 b 167 417 340 299 243 417 b 69 306 101 417 69 375 l 69 243 l 132 243 l 132 299 b 167 354 132 333 138 354 b 389 236 217 354 306 236 z "},"≈":{"ha":556,"x_min":0,"x_max":0,"o":"m 389 410 b 486 521 451 410 486 451 l 486 583 l 424 583 l 424 528 b 389 472 424 493 417 472 b 167 590 340 472 243 590 b 69 479 101 590 69 549 l 69 417 l 132 417 l 132 472 b 167 528 132 507 138 528 b 389 410 217 528 306 410 z m 389 132 b 486 243 451 132 486 174 l 486 306 l 424 306 l 424 250 b 389 194 424 215 417 194 b 167 313 340 194 243 313 b 69 201 101 313 69 271 l 69 139 l 132 139 l 132 194 b 167 250 132 229 138 250 b 389 132 217 250 306 132 z "},"^":{"ha":833,"x_min":0,"x_max":0,"o":"m 431 694 l 403 694 l 69 368 l 69 285 l 90 285 l 375 569 l 417 618 l 458 569 l 743 285 l 764 285 l 764 368 z "},"<":{"ha":556,"x_min":0,"x_max":0,"o":"m 49 361 l 49 333 l 375 0 l 458 0 l 458 21 l 174 306 l 125 347 l 174 389 l 458 674 l 458 694 l 375 694 z "},">":{"ha":556,"x_min":0,"x_max":0,"o":"m 507 361 l 181 694 l 97 694 l 97 674 l 382 389 l 431 347 l 382 306 l 97 21 l 97 0 l 181 0 l 507 333 z "},"≤":{"ha":556,"x_min":0,"x_max":0,"o":"m 56 465 l 56 438 l 389 208 l 486 208 l 486 229 l 215 410 l 139 451 l 215 493 l 486 674 l 486 694 l 389 694 z m 486 0 l 486 69 l 69 69 l 69 0 z "},"≥":{"ha":556,"x_min":0,"x_max":0,"o":"m 486 465 l 153 694 l 56 694 l 56 674 l 326 493 l 403 451 l 326 410 l 56 229 l 56 208 l 153 208 l 486 438 z m 56 0 l 472 0 l 472 69 l 56 69 z "},"¤":{"ha":556,"x_min":0,"x_max":0,"o":"m 451 486 b 429 589 451 529 444 563 l 528 688 l 479 736 l 381 638 b 278 660 354 653 319 660 b 175 638 236 660 201 653 l 76 736 l 28 688 l 126 589 b 104 486 111 563 104 529 b 128 385 104 444 113 411 l 28 285 l 76 236 l 176 336 b 278 313 203 319 238 313 b 379 336 318 313 353 319 l 479 236 l 528 285 l 428 385 b 451 486 443 411 451 444 z m 389 486 b 278 375 389 410 364 375 b 167 486 201 375 167 410 b 278 597 167 569 201 597 b 389 486 364 597 389 569 z "},"°":{"ha":556,"x_min":0,"x_max":0,"o":"m 465 764 b 278 986 465 917 396 986 b 90 764 160 986 90 917 b 278 542 90 611 160 542 b 465 764 396 542 465 611 z m 396 764 b 278 611 396 653 361 611 b 160 764 194 611 160 653 b 278 917 160 875 194 917 b 396 764 361 917 396 875 z "},"&":{"ha":1111,"x_min":0,"x_max":0,"o":"m 451 792 b 556 917 451 889 493 917 b 660 792 618 917 660 889 b 519 629 660 725 619 647 b 451 792 479 678 451 733 z m 938 486 b 876 214 938 374 919 282 l 560 581 b 729 792 679 613 729 699 b 556 986 729 924 660 986 b 382 792 458 986 382 917 b 433 624 382 735 400 675 b 90 313 231 613 90 510 b 486 -14 90 86 236 -14 b 874 107 664 -14 789 29 l 965 0 l 1042 0 l 1042 21 l 921 161 b 1007 486 981 246 1007 356 l 1007 625 l 938 625 z m 160 313 b 478 568 160 475 269 557 l 831 157 b 486 56 758 90 647 56 b 160 313 271 56 160 121 z "},"╋":{"ha":1389,"x_min":0,"x_max":0,"o":"m 69 313 l 674 313 l 674 -278 l 743 -278 l 743 313 l 1319 313 l 1319 382 l 743 382 l 743 972 l 674 972 l 674 382 l 69 382 z "},"⬜":{"ha":1389,"x_min":0,"x_max":0,"o":"m 69 -278 l 1319 -278 l 1319 972 l 69 972 z m 139 -208 l 139 903 l 1250 903 l 1250 -208 z "},"▢":{"ha":1389,"x_min":0,"x_max":0,"o":"m 375 -278 l 1014 -278 b 1319 28 1208 -278 1319 -181 l 1319 667 b 1014 972 1319 861 1222 972 l 375 972 b 69 667 181 972 69 875 l 69 28 b 375 -278 69 -167 167 -278 z m 972 -208 l 410 -208 b 139 69 208 -208 139 -139 l 139 632 b 417 903 139 833 208 903 l 979 903 b 1250 625 1181 903 1250 833 l 1250 63 b 972 -208 1250 -139 1181 -208 z "},"⬛":{"ha":1389,"x_min":0,"x_max":0,"o":"m 69 -278 l 1319 -278 l 1319 972 l 69 972 z "},"⬚":{"ha":1389,"x_min":0,"x_max":0,"o":"m 69 -278 l 1319 -278 l 1319 972 l 69 972 z m 139 -208 l 139 903 l 1250 903 l 1250 -208 z m 694 167 b 875 347 813 167 875 226 b 694 528 875 468 813 528 b 514 347 579 528 514 465 b 694 167 514 226 576 167 z "},"⧈":{"ha":1389,"x_min":0,"x_max":0,"o":"m 69 -278 l 1319 -278 l 1319 972 l 69 972 z m 139 903 l 674 903 l 674 382 l 139 382 z m 1250 903 l 1250 382 l 743 382 l 743 903 z m 139 -208 l 139 313 l 674 313 l 674 -208 z m 1250 -208 l 743 -208 l 743 313 l 1250 313 z "},"▣":{"ha":1389,"x_min":0,"x_max":0,"o":"m 69 -278 l 1319 -278 l 1319 972 l 69 972 z m 139 -208 l 139 903 l 1250 903 l 1250 -208 z m 556 208 l 833 208 l 833 486 l 556 486 z "},"▪":{"ha":1389,"x_min":0,"x_max":0,"o":"m 486 139 l 903 139 l 903 556 l 486 556 z "},"▫":{"ha":1389,"x_min":0,"x_max":0,"o":"m 451 104 l 938 104 l 938 590 l 451 590 z m 521 174 l 521 521 l 868 521 l 868 174 z "},"◆":{"ha":1389,"x_min":0,"x_max":0,"o":"m 694 -340 l 1382 347 l 694 1035 l 7 347 z "},"◇":{"ha":1389,"x_min":0,"x_max":0,"o":"m 694 -340 l 1382 347 l 694 1035 l 7 347 z m 694 -243 l 104 347 l 694 938 l 1285 347 z "},"◈":{"ha":1389,"x_min":0,"x_max":0,"o":"m 694 -340 l 1382 347 l 694 1035 l 7 347 z m 694 -243 l 104 347 l 694 938 l 1285 347 z m 694 76 l 972 347 l 694 625 l 424 347 z "},"◧":{"ha":1389,"x_min":0,"x_max":0,"o":"m 69 -278 l 1319 -278 l 1319 972 l 69 972 z m 1250 903 l 1250 -208 l 694 -208 l 694 903 z "},"◨":{"ha":1389,"x_min":0,"x_max":0,"o":"m 69 -278 l 1319 -278 l 1319 972 l 69 972 z m 139 -208 l 139 903 l 694 903 l 694 -208 z "},"◩":{"ha":1389,"x_min":0,"x_max":0,"o":"m 69 -278 l 1319 -278 l 1319 972 l 69 972 z m 139 -208 l 1250 903 l 1250 -208 z "},"◪":{"ha":1389,"x_min":0,"x_max":0,"o":"m 69 -278 l 1319 -278 l 1319 972 l 69 972 z m 139 -208 l 139 903 l 1250 903 z "},"◫":{"ha":1389,"x_min":0,"x_max":0,"o":"m 69 -278 l 1319 -278 l 1319 972 l 69 972 z m 139 -208 l 139 903 l 660 903 l 660 -208 z m 729 -208 l 729 903 l 1250 903 l 1250 -208 z "},"▥":{"ha":1389,"x_min":0,"x_max":0,"o":"m 69 -278 l 1319 -278 l 1319 972 l 69 972 z m 139 -208 l 139 903 l 368 903 l 368 -208 z m 1021 -208 l 1021 903 l 1250 903 l 1250 -208 z m 729 -208 l 729 903 l 951 903 l 951 -208 z m 438 -208 l 438 903 l 660 903 l 660 -208 z "},"▤":{"ha":1389,"x_min":0,"x_max":0,"o":"m 1319 -278 l 1319 972 l 69 972 l 69 -278 z m 1250 674 l 139 674 l 139 903 l 1250 903 z m 1250 382 l 139 382 l 139 604 l 1250 604 z m 1250 90 l 139 90 l 139 313 l 1250 313 z m 1250 -208 l 139 -208 l 139 21 l 1250 21 z "},"▧":{"ha":1389,"x_min":0,"x_max":0,"o":"m 69 -278 l 1319 -278 l 1319 972 l 69 972 z m 188 903 l 479 903 l 1250 132 l 1250 -160 z m 576 903 l 868 903 l 1250 521 l 1250 229 z m 1250 903 l 1250 618 l 965 903 z m 910 -208 l 139 563 l 139 854 l 1201 -208 z m 514 -208 l 139 167 l 139 465 l 813 -208 z m 139 -208 l 139 69 l 417 -208 z "},"▨":{"ha":1389,"x_min":0,"x_max":0,"o":"m 69 -278 l 1319 -278 l 1319 972 l 69 972 z m 139 903 l 431 903 l 139 611 z m 139 -167 l 139 125 l 917 903 l 1208 903 z m 194 -208 l 1250 847 l 1250 556 l 486 -208 z m 583 -208 l 1250 458 l 1250 160 l 882 -208 z m 1250 -208 l 979 -208 l 1250 63 z m 139 514 l 528 903 l 819 903 l 139 222 z "},"▩":{"ha":1389,"x_min":0,"x_max":0,"o":"m 69 -278 l 1319 -278 l 1319 972 l 69 972 z m 188 903 l 688 903 l 438 653 z m 701 903 l 1194 903 l 949 657 z m 139 854 l 389 604 l 139 354 z m 1000 604 l 1250 854 l 1250 354 z m 490 601 l 699 810 l 900 608 l 692 400 z m 743 347 l 951 556 l 1160 347 l 951 139 z m 233 344 l 442 553 l 643 351 l 435 143 z m 1000 90 l 1250 340 l 1250 -160 z m 139 340 l 386 94 l 139 -153 z m 486 90 l 694 299 l 903 90 l 694 -118 z m 701 -208 l 951 42 l 1201 -208 z m 188 -208 l 438 42 l 688 -208 z "},"◰":{"ha":1389,"x_min":0,"x_max":0,"o":"m 69 -278 l 1319 -278 l 1319 972 l 69 972 z m 139 903 l 660 903 l 660 382 l 139 382 z m 139 -208 l 139 313 l 729 313 l 729 903 l 1250 903 l 1250 -208 z "},"◱":{"ha":1389,"x_min":0,"x_max":0,"o":"m 69 -278 l 1319 -278 l 1319 972 l 69 972 z m 139 -208 l 139 313 l 660 313 l 660 -208 z m 139 382 l 139 903 l 1250 903 l 1250 -208 l 729 -208 l 729 382 z "},"◲":{"ha":1389,"x_min":0,"x_max":0,"o":"m 69 -278 l 1319 -278 l 1319 972 l 69 972 z m 139 -208 l 139 903 l 660 903 l 660 313 l 1250 313 l 1250 -208 z m 1250 382 l 729 382 l 729 903 l 1250 903 z "},"◳":{"ha":1389,"x_min":0,"x_max":0,"o":"m 69 -278 l 1319 -278 l 1319 972 l 69 972 z m 139 -208 l 139 903 l 1250 903 l 1250 382 l 660 382 l 660 -208 z m 1250 313 l 1250 -208 l 729 -208 l 729 313 z "},"⛋":{"ha":1389,"x_min":0,"x_max":0,"o":"m 69 -278 l 1319 -278 l 1319 972 l 69 972 z m 139 903 l 688 903 l 139 354 z m 1250 903 l 1250 354 l 701 903 z m 233 344 l 699 810 l 1160 347 l 694 -118 z m 1250 -208 l 701 -208 l 1250 340 z m 139 -208 l 139 340 l 688 -208 z "},"○":{"ha":1389,"x_min":0,"x_max":0,"o":"m 694 -292 b 1333 347 1111 -292 1333 -76 b 694 986 1333 764 1111 986 b 56 347 278 986 56 764 b 694 -292 56 -76 278 -292 z m 694 -222 b 125 347 322 -222 125 -35 b 694 917 125 722 322 917 b 1264 347 1067 917 1264 722 b 694 -222 1264 -35 1067 -222 z "},"●":{"ha":1389,"x_min":0,"x_max":0,"o":"m 694 -292 b 1333 347 1111 -292 1333 -76 b 694 986 1333 764 1111 986 b 56 347 278 986 56 764 b 694 -292 56 -76 278 -292 z "},"◉":{"ha":1389,"x_min":0,"x_max":0,"o":"m 694 -292 b 1333 347 1111 -292 1333 -76 b 694 986 1333 764 1111 986 b 56 347 278 986 56 764 b 694 -292 56 -76 278 -292 z m 694 -222 b 125 347 322 -222 125 -35 b 694 917 125 722 322 917 b 1264 347 1067 917 1264 722 b 694 -222 1264 -35 1067 -222 z m 694 167 b 875 347 815 167 875 229 b 694 528 875 465 815 528 b 514 347 579 528 514 465 b 694 167 514 229 579 167 z "},"◎":{"ha":1389,"x_min":0,"x_max":0,"o":"m 694 -292 b 1333 347 1111 -292 1333 -76 b 694 986 1333 764 1111 986 b 56 347 278 986 56 764 b 694 -292 56 -76 278 -292 z m 694 -222 b 125 347 322 -222 125 -35 b 694 917 125 722 322 917 b 1264 347 1067 917 1264 722 b 694 -222 1264 -35 1067 -222 z m 694 21 b 1021 347 910 21 1021 128 b 694 674 1021 561 910 674 b 368 347 481 674 368 563 b 694 21 368 128 479 21 z m 694 83 b 431 347 518 83 431 174 b 694 611 431 521 521 611 b 958 347 868 611 958 521 b 694 83 958 174 871 83 z "},"◌":{"ha":1389,"x_min":0,"x_max":0,"o":"m 694 1000 b 646 951 667 1000 646 979 b 694 903 646 924 667 903 b 743 951 722 903 743 924 b 694 1000 743 979 722 1000 z m 354 931 b 306 882 326 931 306 910 b 354 833 306 854 326 833 b 403 882 382 833 403 854 b 354 931 403 910 382 931 z m 1035 931 b 986 882 1007 931 986 910 b 1035 833 986 854 1007 833 b 1083 882 1063 833 1083 854 b 1035 931 1083 910 1063 931 z m 139 701 b 90 653 111 701 90 681 b 139 604 90 625 111 604 b 188 653 167 604 188 625 b 139 701 188 681 167 701 z m 1250 701 b 1201 653 1222 701 1201 681 b 1250 604 1201 625 1222 604 b 1299 653 1278 604 1299 625 b 1250 701 1299 681 1278 701 z m 90 396 b 42 347 63 396 42 375 b 90 299 42 319 63 299 b 139 347 118 299 139 319 b 90 396 139 375 118 396 z m 1299 396 b 1250 347 1271 396 1250 375 b 1299 299 1250 319 1271 299 b 1347 347 1326 299 1347 319 b 1299 396 1347 375 1326 396 z m 139 90 b 90 42 111 90 90 69 b 139 -7 90 14 111 -7 b 188 42 167 -7 188 14 b 139 90 188 69 167 90 z m 1250 90 b 1201 42 1222 90 1201 69 b 1250 -7 1201 14 1222 -7 b 1299 42 1278 -7 1299 14 b 1250 90 1299 69 1278 90 z m 354 -139 b 306 -187 326 -139 306 -160 b 354 -236 306 -215 326 -236 b 403 -187 382 -236 403 -215 b 354 -139 403 -160 382 -139 z m 1035 -139 b 986 -187 1007 -139 986 -160 b 1035 -236 986 -215 1007 -236 b 1083 -187 1063 -236 1083 -215 b 1035 -139 1083 -160 1063 -139 z m 694 -208 b 646 -257 667 -208 646 -229 b 694 -306 646 -285 667 -306 b 743 -257 722 -306 743 -285 b 694 -208 743 -229 722 -208 z "},"◍":{"ha":1389,"x_min":0,"x_max":0,"o":"m 694 -292 b 1333 347 1111 -292 1333 -76 b 694 986 1333 764 1111 986 b 56 347 278 986 56 764 b 694 -292 56 -76 278 -292 z m 729 917 b 938 882 807 914 876 901 l 938 -187 b 729 -222 876 -208 807 -219 z m 451 -187 l 451 882 b 660 917 513 901 582 914 l 660 -222 b 451 -187 582 -219 513 -208 z m 1264 347 b 1007 -160 1264 93 1176 -76 l 1007 853 b 1264 347 1176 767 1264 597 z m 125 347 b 382 853 125 597 213 767 l 382 -160 b 125 347 213 -76 125 93 z "},"◐":{"ha":1389,"x_min":0,"x_max":0,"o":"m 694 -292 b 1333 347 1111 -292 1333 -76 b 694 986 1333 764 1111 986 b 56 347 278 986 56 764 b 694 -292 56 -76 278 -292 z m 694 -222 b 125 347 322 -222 125 -35 b 694 917 125 722 322 917 z "},"◑":{"ha":1389,"x_min":0,"x_max":0,"o":"m 694 -292 b 1333 347 1111 -292 1333 -76 b 694 986 1333 764 1111 986 b 56 347 278 986 56 764 b 694 -292 56 -76 278 -292 z m 694 -222 l 694 917 b 1264 347 1067 917 1264 722 b 694 -222 1264 -35 1067 -222 z "},"◒":{"ha":1389,"x_min":0,"x_max":0,"o":"m 694 -292 b 1333 347 1111 -292 1333 -76 b 694 986 1333 764 1111 986 b 56 347 278 986 56 764 b 694 -292 56 -76 278 -292 z m 694 917 b 1264 347 1067 917 1264 722 l 125 347 b 694 917 125 722 322 917 z "},"◓":{"ha":1389,"x_min":0,"x_max":0,"o":"m 694 -292 b 1333 347 1111 -292 1333 -76 b 694 986 1333 764 1111 986 b 56 347 278 986 56 764 b 694 -292 56 -76 278 -292 z m 694 -222 b 125 347 322 -222 125 -35 l 1264 347 b 694 -222 1264 -35 1067 -222 z "},"◔":{"ha":1389,"x_min":0,"x_max":0,"o":"m 694 -292 b 1333 347 1111 -292 1333 -76 b 694 986 1333 764 1111 986 b 56 347 278 986 56 764 b 694 -292 56 -76 278 -292 z m 694 -222 b 125 347 322 -222 125 -35 b 694 917 125 722 322 917 l 694 347 l 1264 347 b 694 -222 1264 -35 1067 -222 z "},"◕":{"ha":1389,"x_min":0,"x_max":0,"o":"m 694 -292 b 1333 347 1111 -292 1333 -76 b 694 986 1333 764 1111 986 b 56 347 278 986 56 764 b 694 -292 56 -76 278 -292 z m 694 917 l 694 347 l 125 347 b 694 917 125 722 322 917 z "},"◢":{"ha":1389,"x_min":0,"x_max":0,"o":"m 69 -278 l 1319 -278 l 1319 972 z "},"◣":{"ha":1389,"x_min":0,"x_max":0,"o":"m 1319 -278 l 69 972 l 69 -278 z "},"◤":{"ha":1389,"x_min":0,"x_max":0,"o":"m 1319 972 l 69 972 l 69 -278 z "},"◥":{"ha":1389,"x_min":0,"x_max":0,"o":"m 69 972 l 1319 -278 l 1319 972 z "},"░":{"ha":1389,"x_min":0,"x_max":0,"o":"m 174 764 b 243 833 215 764 243 792 b 174 903 243 875 215 903 b 104 833 132 903 104 875 b 174 764 104 792 132 764 z m 521 764 b 590 833 563 764 590 792 b 521 903 590 875 563 903 b 451 833 479 903 451 875 b 521 764 451 792 479 764 z m 868 764 b 938 833 910 764 938 792 b 868 903 938 875 910 903 b 799 833 826 903 799 875 b 868 764 799 792 826 764 z m 1215 764 b 1285 833 1257 764 1285 792 b 1215 903 1285 875 1257 903 b 1146 833 1174 903 1146 875 b 1215 764 1146 792 1174 764 z m 0 417 b 69 486 42 417 69 444 b 0 556 69 528 42 556 z m 347 417 b 417 486 389 417 417 444 b 347 556 417 528 389 556 b 278 486 306 556 278 528 b 347 417 278 444 306 417 z m 694 417 b 764 486 736 417 764 444 b 694 556 764 528 736 556 b 625 486 653 556 625 528 b 694 417 625 444 653 417 z m 1042 417 b 1111 486 1083 417 1111 444 b 1042 556 1111 528 1083 556 b 972 486 1000 556 972 528 b 1042 417 972 444 1000 417 z m 1389 417 l 1389 556 b 1319 486 1347 556 1319 528 b 1389 417 1319 444 1347 417 z m 174 69 b 243 139 215 69 243 97 b 174 208 243 181 215 208 b 104 139 132 208 104 181 b 174 69 104 97 132 69 z m 521 69 b 590 139 563 69 590 97 b 521 208 590 181 563 208 b 451 139 479 208 451 181 b 521 69 451 97 479 69 z m 868 69 b 938 139 910 69 938 97 b 868 208 938 181 910 208 b 799 139 826 208 799 181 b 868 69 799 97 826 69 z m 1215 69 b 1285 139 1257 69 1285 97 b 1215 208 1285 181 1257 208 b 1146 139 1174 208 1146 181 b 1215 69 1146 97 1174 69 z m 0 -278 b 69 -208 42 -278 69 -250 b 0 -139 69 -167 42 -139 z m 347 -278 b 417 -208 389 -278 417 -250 b 347 -139 417 -167 389 -139 b 278 -208 306 -139 278 -167 b 347 -278 278 -250 306 -278 z m 694 -278 b 764 -208 736 -278 764 -250 b 694 -139 764 -167 736 -139 b 625 -208 653 -139 625 -167 b 694 -278 625 -250 653 -278 z m 1042 -278 b 1111 -208 1083 -278 1111 -250 b 1042 -139 1111 -167 1083 -139 b 972 -208 1000 -139 972 -167 b 1042 -278 972 -250 1000 -278 z m 1389 -278 l 1389 -139 b 1319 -208 1347 -139 1319 -167 b 1389 -278 1319 -250 1347 -278 z "},"▒":{"ha":1389,"x_min":0,"x_max":0,"o":"m 174 729 b 278 833 236 729 278 771 b 174 938 278 896 236 938 b 69 833 111 938 69 896 b 174 729 69 771 111 729 z m 521 729 b 625 833 583 729 625 771 b 521 938 625 896 583 938 b 417 833 458 938 417 896 b 521 729 417 771 458 729 z m 868 729 b 972 833 931 729 972 771 b 868 938 972 896 931 938 b 764 833 806 938 764 896 b 868 729 764 771 806 729 z m 1215 729 b 1319 833 1278 729 1319 771 b 1215 938 1319 896 1278 938 b 1111 833 1153 938 1111 896 b 1215 729 1111 771 1153 729 z m 0 382 b 111 486 69 382 111 424 b 0 590 111 549 69 590 z m 347 382 b 451 486 410 382 451 424 b 347 590 451 549 410 590 b 243 486 285 590 243 549 b 347 382 243 424 285 382 z m 694 382 b 799 486 757 382 799 424 b 694 590 799 549 757 590 b 590 486 632 590 590 549 b 694 382 590 424 632 382 z m 1042 382 b 1146 486 1104 382 1146 424 b 1042 590 1146 549 1104 590 b 938 486 979 590 938 549 b 1042 382 938 424 979 382 z m 1389 382 l 1389 590 b 1278 486 1319 590 1278 549 b 1389 382 1278 424 1319 382 z m 174 35 b 278 139 236 35 278 76 b 174 243 278 201 236 243 b 69 139 111 243 69 201 b 174 35 69 76 111 35 z m 521 35 b 625 139 583 35 625 76 b 521 243 625 201 583 243 b 417 139 458 243 417 201 b 521 35 417 76 458 35 z m 868 35 b 972 139 931 35 972 76 b 868 243 972 201 931 243 b 764 139 806 243 764 201 b 868 35 764 76 806 35 z m 1215 35 b 1319 139 1278 35 1319 76 b 1215 243 1319 201 1278 243 b 1111 139 1153 243 1111 201 b 1215 35 1111 76 1153 35 z m 0 -312 b 111 -208 69 -312 111 -271 b 0 -104 111 -146 69 -104 z m 347 -312 b 451 -208 410 -312 451 -271 b 347 -104 451 -146 410 -104 b 243 -208 285 -104 243 -146 b 347 -312 243 -271 285 -312 z m 694 -312 b 799 -208 757 -312 799 -271 b 694 -104 799 -146 757 -104 b 590 -208 632 -104 590 -146 b 694 -312 590 -271 632 -312 z m 1042 -312 b 1146 -208 1104 -312 1146 -271 b 1042 -104 1146 -146 1104 -104 b 938 -208 979 -104 938 -146 b 1042 -312 938 -271 979 -312 z m 1389 -312 l 1389 -104 b 1278 -208 1319 -104 1278 -146 b 1389 -312 1278 -271 1319 -312 z "},"▓":{"ha":1389,"x_min":0,"x_max":0,"o":"m 174 681 b 333 833 271 681 333 743 b 174 993 333 931 271 993 b 14 833 83 993 14 931 b 174 681 14 743 83 681 z m 521 681 b 681 833 618 681 681 743 b 521 993 681 931 618 993 b 361 833 431 993 361 931 b 521 681 361 743 431 681 z m 868 681 b 1028 833 965 681 1028 743 b 868 993 1028 931 965 993 b 708 833 778 993 708 931 b 868 681 708 743 778 681 z m 1215 681 b 1375 833 1313 681 1375 743 b 1215 993 1375 931 1313 993 b 1056 833 1125 993 1056 931 b 1215 681 1056 743 1125 681 z m 0 333 b 167 486 104 333 167 396 b 0 646 167 583 104 646 z m 347 333 b 507 486 444 333 507 396 b 347 646 507 583 444 646 b 188 486 257 646 188 583 b 347 333 188 396 257 333 z m 694 333 b 854 486 792 333 854 396 b 694 646 854 583 792 646 b 535 486 604 646 535 583 b 694 333 535 396 604 333 z m 1042 333 b 1201 486 1139 333 1201 396 b 1042 646 1201 583 1139 646 b 882 486 951 646 882 583 b 1042 333 882 396 951 333 z m 1389 333 l 1389 646 b 1222 486 1285 646 1222 583 b 1389 333 1222 396 1285 333 z m 174 -14 b 333 139 271 -14 333 49 b 174 299 333 236 271 299 b 14 139 83 299 14 236 b 174 -14 14 49 83 -14 z m 521 -14 b 681 139 618 -14 681 49 b 521 299 681 236 618 299 b 361 139 431 299 361 236 b 521 -14 361 49 431 -14 z m 868 -14 b 1028 139 965 -14 1028 49 b 868 299 1028 236 965 299 b 708 139 778 299 708 236 b 868 -14 708 49 778 -14 z m 1215 -14 b 1375 139 1313 -14 1375 49 b 1215 299 1375 236 1313 299 b 1056 139 1125 299 1056 236 b 1215 -14 1056 49 1125 -14 z m 0 -361 b 167 -208 104 -361 167 -299 b 0 -49 167 -111 104 -49 z m 347 -361 b 507 -208 444 -361 507 -299 b 347 -49 507 -111 444 -49 b 188 -208 257 -49 188 -111 b 347 -361 188 -299 257 -361 z m 694 -361 b 854 -208 792 -361 854 -299 b 694 -49 854 -111 792 -49 b 535 -208 604 -49 535 -111 b 694 -361 535 -299 604 -361 z m 1042 -361 b 1201 -208 1139 -361 1201 -299 b 1042 -49 1201 -111 1139 -49 b 882 -208 951 -49 882 -111 b 1042 -361 882 -299 951 -361 z m 1389 -361 l 1389 -49 b 1222 -208 1285 -49 1222 -111 b 1389 -361 1222 -299 1285 -361 z "},"▔":{"ha":1389,"x_min":0,"x_max":0,"o":"m -7 833 b 174 653 -7 729 76 653 b 347 782 260 653 326 706 b 521 653 369 706 440 653 b 694 782 607 653 674 706 b 868 653 717 706 788 653 b 1038 769 949 653 1014 699 b 1215 646 1064 694 1133 646 b 1403 833 1326 646 1403 722 b 1215 1021 1403 944 1326 1021 b 1038 897 1133 1021 1064 972 b 868 1014 1014 968 949 1014 b 694 885 788 1014 717 961 b 521 1014 674 961 607 1014 b 347 885 440 1014 369 961 b 174 1014 326 961 260 1014 b -7 833 76 1014 -7 938 z m 0 306 b 174 435 86 306 153 358 b 347 306 196 358 267 306 b 521 435 433 306 500 358 b 694 306 543 358 614 306 b 864 422 775 306 840 351 b 1042 299 890 347 960 299 b 1219 421 1129 299 1196 346 b 1389 306 1244 351 1308 306 l 1389 667 b 1219 551 1308 667 1244 621 b 1042 674 1196 626 1129 674 b 864 550 960 674 890 625 b 694 667 840 621 775 667 b 521 538 614 667 543 614 b 347 667 500 614 433 667 b 174 538 267 667 196 614 b 0 667 153 614 86 667 z m -7 139 b 174 -42 -7 35 76 -42 b 347 88 260 -42 326 11 b 521 -42 369 11 440 -42 b 694 88 607 -42 674 11 b 868 -42 717 11 788 -42 b 1038 75 949 -42 1014 4 b 1215 -49 1064 0 1133 -49 b 1403 139 1326 -49 1403 28 b 1215 326 1403 250 1326 326 b 1038 203 1133 326 1064 278 b 868 319 1014 274 949 319 b 694 190 788 319 717 267 b 521 319 674 267 607 319 b 347 190 440 319 369 267 b 174 319 326 267 260 319 b -7 139 76 319 -7 243 z m 0 -389 b 174 -260 86 -389 153 -336 b 347 -389 196 -336 267 -389 b 521 -260 433 -389 500 -336 b 694 -389 543 -336 614 -389 b 864 -272 775 -389 840 -343 b 1042 -396 890 -347 960 -396 b 1219 -274 1129 -396 1196 -349 b 1389 -389 1244 -343 1308 -389 l 1389 -28 b 1219 -143 1308 -28 1244 -74 b 1042 -21 1196 -68 1129 -21 b 864 -144 960 -21 890 -69 b 694 -28 840 -74 775 -28 b 521 -157 614 -28 543 -81 b 347 -28 500 -81 433 -28 b 174 -157 267 -28 196 -81 b 0 -28 153 -81 86 -28 z "},"←":{"ha":833,"x_min":0,"x_max":0,"o":"m 35 326 l 361 0 l 444 0 l 444 21 l 250 208 l 121 324 l 382 313 l 799 313 l 799 382 l 382 382 l 121 371 l 250 486 l 444 674 l 444 694 l 361 694 l 35 368 z "},"↑":{"ha":833,"x_min":0,"x_max":0,"o":"m 382 -35 l 451 -35 l 451 382 l 440 643 l 556 514 l 743 319 l 764 319 l 764 403 l 438 729 l 396 729 l 69 403 l 69 319 l 90 319 l 278 514 l 393 643 l 382 382 z "},"→":{"ha":833,"x_min":0,"x_max":0,"o":"m 35 382 l 35 313 l 451 313 l 713 324 l 583 208 l 389 21 l 389 0 l 472 0 l 799 326 l 799 368 l 472 694 l 389 694 l 389 674 l 583 486 l 713 371 l 451 382 z "},"↓":{"ha":833,"x_min":0,"x_max":0,"o":"m 396 -35 l 438 -35 l 764 292 l 764 375 l 743 375 l 556 181 l 440 51 l 451 313 l 451 729 l 382 729 l 382 313 l 393 51 l 278 181 l 90 375 l 69 375 l 69 292 z "},"↔":{"ha":1389,"x_min":0,"x_max":0,"o":"m 35 326 l 361 0 l 444 0 l 444 21 l 250 208 l 121 324 l 382 313 l 1007 313 l 1268 324 l 1139 208 l 944 21 l 944 0 l 1028 0 l 1354 326 l 1354 368 l 1028 694 l 944 694 l 944 674 l 1139 486 l 1268 371 l 1007 382 l 382 382 l 121 371 l 250 486 l 444 674 l 444 694 l 361 694 l 35 368 z "},"↕":{"ha":833,"x_min":0,"x_max":0,"o":"m 396 -312 l 438 -312 l 764 14 l 764 97 l 743 97 l 556 -97 l 440 -226 l 451 35 l 451 660 l 440 921 l 556 792 l 743 597 l 764 597 l 764 681 l 438 1007 l 396 1007 l 69 681 l 69 597 l 90 597 l 278 792 l 393 921 l 382 660 l 382 35 l 393 -226 l 278 -97 l 90 97 l 69 97 l 69 14 z "},"↖":{"ha":1111,"x_min":0,"x_max":0,"o":"m 69 944 l 69 201 l 125 146 l 146 160 l 139 708 l 126 883 l 306 688 l 931 63 l 979 111 l 354 736 l 157 915 l 333 903 l 882 896 l 896 917 l 840 972 l 97 972 l 85 957 z "},"↗":{"ha":1111,"x_min":0,"x_max":0,"o":"m 146 63 l 771 688 l 950 885 l 938 708 l 931 160 l 951 146 l 1007 201 l 1007 944 l 992 957 l 979 972 l 236 972 l 181 917 l 194 896 l 743 903 l 918 915 l 722 736 l 97 111 z "},"↘":{"ha":1111,"x_min":0,"x_max":0,"o":"m 97 861 l 722 236 l 919 57 l 743 69 l 194 76 l 181 56 l 236 0 l 979 0 l 992 15 l 1007 28 l 1007 771 l 951 826 l 931 813 l 938 264 l 950 89 l 771 285 l 146 910 z "},"↙":{"ha":1111,"x_min":0,"x_max":0,"o":"m 69 28 l 85 15 l 97 0 l 840 0 l 896 56 l 882 76 l 333 69 l 158 57 l 354 236 l 979 861 l 931 910 l 306 285 l 126 88 l 139 264 l 146 813 l 125 826 l 69 771 z "},"⇄":{"ha":1389,"x_min":0,"x_max":0,"o":"m 139 590 l 938 590 l 1199 601 l 1069 486 l 875 299 l 875 278 l 958 278 l 1285 604 l 1285 646 l 958 972 l 875 972 l 875 951 l 1069 764 l 1199 649 l 938 660 l 139 660 z m 104 49 l 431 -278 l 514 -278 l 514 -257 l 319 -69 l 190 46 l 451 35 l 1250 35 l 1250 104 l 451 104 l 190 93 l 319 208 l 514 396 l 514 417 l 431 417 l 104 90 z "},"✌":{"ha":833,"x_min":0,"x_max":0,"o":"m 708 0 b 740 286 761 99 769 199 b 785 444 767 318 785 372 b 681 625 785 583 715 625 b 626 582 649 625 635 610 b 565 672 613 631 589 660 b 583 715 572 682 579 694 b 535 1028 639 993 576 1014 b 424 910 493 1035 451 1014 l 361 653 b 340 625 354 632 354 625 b 319 653 326 625 326 632 l 257 896 b 153 1021 229 1014 188 1028 b 132 500 104 1007 14 958 b 157 449 139 472 147 457 b 118 368 131 422 121 396 b 194 14 111 326 125 111 b 438 -69 236 -42 333 -69 b 708 0 549 -69 667 -35 z m 340 590 b 396 646 363 590 383 597 l 458 889 b 528 986 479 972 500 993 b 533 681 568 972 582 901 b 464 546 488 681 446 633 b 306 535 425 567 357 557 b 185 472 251 513 213 492 b 160 979 83 808 104 972 b 222 875 188 986 200 960 l 278 660 b 340 590 294 596 313 590 z m 528 639 b 590 479 563 639 590 563 b 542 306 590 404 583 306 b 500 368 514 306 500 332 l 500 590 b 528 639 500 619 507 639 z m 674 583 b 743 444 708 583 743 522 b 681 292 743 383 722 292 b 639 361 639 292 639 326 l 639 507 b 674 583 639 542 639 583 z m 465 97 b 215 42 375 97 281 78 b 160 361 165 140 153 317 b 319 493 168 408 206 429 b 458 507 428 543 447 518 b 285 340 488 469 346 375 b 354 333 299 319 325 314 l 375 347 b 474 435 424 381 456 410 b 458 368 467 414 458 389 b 542 264 458 313 483 264 b 614 331 568 264 594 286 b 681 250 619 272 642 250 b 714 260 692 250 703 253 b 694 35 721 206 718 113 b 465 97 639 83 554 97 z m 528 14 b 465 -21 528 -7 519 -21 b 389 14 397 -21 389 -7 b 465 49 389 35 397 49 b 528 14 519 49 528 35 z "},"☺":{"ha":1389,"x_min":0,"x_max":0,"o":"m 694 -292 b 1333 347 1111 -292 1333 -76 b 694 986 1333 764 1111 986 b 56 347 278 986 56 764 b 694 -292 56 -76 278 -292 z m 694 -222 b 125 347 322 -222 125 -35 b 694 917 125 722 322 917 b 1264 347 1067 917 1264 722 b 694 -222 1264 -35 1067 -222 z m 444 549 b 396 500 417 549 396 528 b 444 451 396 472 417 451 b 493 500 472 451 493 472 b 444 549 493 528 472 549 z m 944 549 b 896 500 917 549 896 528 b 944 451 896 472 917 451 b 993 500 972 451 993 472 b 944 549 993 528 972 549 z m 694 69 b 931 181 851 69 917 103 l 458 181 b 694 69 472 103 538 69 z "},"☻":{"ha":1389,"x_min":0,"x_max":0,"o":"m 694 -292 b 1333 347 1111 -292 1333 -76 b 694 986 1333 764 1111 986 b 56 347 278 986 56 764 b 694 -292 56 -76 278 -292 z m 444 549 b 493 500 472 549 493 528 b 444 451 493 472 472 451 b 396 500 417 451 396 472 b 444 549 396 528 417 549 z m 944 549 b 993 500 972 549 993 528 b 944 451 993 472 972 451 b 896 500 917 451 896 472 b 944 549 896 528 917 549 z m 694 69 b 458 181 535 69 472 104 l 931 181 b 694 69 917 104 854 69 z "},"☠":{"ha":1389,"x_min":0,"x_max":0,"o":"m 681 -278 l 708 -278 l 726 -104 l 908 -104 l 924 -278 l 951 -278 l 972 -35 l 972 154 b 1333 556 1206 213 1333 346 b 694 986 1333 833 1111 986 b 56 556 278 986 56 833 b 417 154 56 346 183 213 l 417 -35 l 438 -278 l 465 -278 l 481 -104 l 664 -104 z m 486 208 b 125 556 250 257 125 375 b 694 917 125 785 319 917 b 1264 556 1069 917 1264 785 b 903 208 1264 375 1139 257 l 903 -35 l 726 -35 l 708 139 l 674 139 l 663 -35 l 486 -35 z m 444 625 b 396 576 417 625 396 604 b 444 528 396 549 417 528 b 493 576 472 528 493 549 b 444 625 493 604 472 625 z m 944 625 b 896 576 917 625 896 604 b 944 528 896 549 917 528 b 993 576 972 528 993 549 b 944 625 993 604 972 625 z m 681 535 l 590 306 l 590 278 l 646 278 l 694 424 l 743 278 l 799 278 l 799 306 l 708 535 z "},"£":{"ha":833,"x_min":0,"x_max":0,"o":"m 69 69 l 69 0 l 757 0 l 757 69 l 261 69 b 301 207 293 100 301 144 b 251 417 301 289 278 354 l 561 417 l 561 486 l 221 486 b 167 708 192 553 167 621 b 417 903 167 833 217 903 b 660 639 594 903 660 868 l 660 625 l 722 625 l 722 667 b 458 972 722 889 625 972 l 417 972 b 104 708 188 972 104 875 b 150 486 104 619 125 549 l 69 486 l 69 417 l 181 417 b 239 207 211 349 239 285 b 90 69 239 110 197 69 z "}}}
